<?xml version="1.0" encoding="utf-8"?>
<!-- Generator: Adobe Illustrator 19.2.1, SVG Export Plug-In . SVG Version: 6.00 Build 0)  -->
<svg version="1.1" id="Layer_1" xmlns="http://www.w3.org/2000/svg" xmlns:xlink="http://www.w3.org/1999/xlink" x="0px" y="0px"
	 width="125px" height="125px" viewBox="0 0 125 125" style="enable-background:new 0 0 125 125;" xml:space="preserve">
<style type="text/css">
	.st0{fill:#2B8EFF;}
	.st1{fill:#B6D6E1;}
	.st2{fill:#FFC466;}
	.st3{fill:#FFB13D;}
	.st4{opacity:0.2;fill:#2484F2;enable-background:new    ;}
	.st5{fill:#FFC46E;}
	.st6{opacity:0.2;fill:#DCF3FA;enable-background:new    ;}
</style>
<title>spritzr-date-icons-drinks</title>
<g id="champagne">
	<path class="st0" d="M62.5,0C97,0,125,28,125,62.5S97,125,62.5,125S0,97,0,62.5S28,0,62.5,0z"/>
	<path class="st1" d="M48.8,32.9c-9.2-2.9-14.9-4.1-15.9-1.1c0,0-6.9,14.4-10.7,38.8c-1.7,10.7,0.6,18.1,2.2,23.4
		c0.1,0.4,0.5,1.6,0.5,1.9l-3.1,14c1.4,1.2,2.8,2.3,4.2,3.3l6.2-15.1c0.5-0.5,1.8-1.5,1.8-1.5l0,0c4.4-3.4,10.2-8.2,14.8-17.7
		c10.8-22.2,13.3-38,13.3-38C62.7,38.7,58,35.8,48.8,32.9z"/>
	<path class="st1" d="M105.8,93.8c0-0.3,0.3-1.5,0.3-1.9c1.2-5.5,2.9-13,0.3-23.5c-5.8-24-13.8-37.8-13.8-37.8
		c-1.2-3-7.2-2.6-16.1,1S63.1,39.1,64.2,42c0,0,3.8,15.5,16.4,36.8c5.4,9.1,11.6,13.4,16.2,16.5l0,0c0,0,1.4,1,2,1.4l6,11.9
		c1.5-1.4,2.9-2.8,4.3-4.3L105.8,93.8z"/>
	<path class="st2" d="M67.6,46.7c-1.3-3.2,4.6-3.1,7.1-0.6s11.7,2,17.4,2c5,0,4.2-3.5,6,1.6s6.6,18,6.9,25.3s-2.5,14.3-4,15
		s-11.4-1.5-19.4-14C74.7,65,69.7,51.8,67.6,46.7z"/>
	<path class="st3" d="M101.1,89.8c1.5-0.6,4.3-7.7,4-15c-0.1-1.7-0.3-3.4-0.7-5c-0.1,1.3-0.1,2.8-0.2,4.5
		c-0.5,6.9-5.4,10.6-14.8,3.7c-7.6-5.6-17.6-26.1-21.1-33.5c-0.7,0.3-1.1,1.2-0.7,2c0,0,0,0.1,0.1,0.1c2.1,5.2,7.1,18.3,14,29.1
		C89.7,88.3,99.5,90.4,101.1,89.8z"/>
	<path class="st2" d="M59.2,45.9c1-3.3-2.9-4.1-4.5,1.8c-1.5,5.5-10.1,6.6-20.6,6.2c-5-0.2-4.5-3.1-5.8,2S23.9,69.8,24.2,77
		s3.6,14.1,5.2,14.6S40.6,89.1,47.6,76C53.7,64.7,57.6,51.2,59.2,45.9z"/>
	<path class="st3" d="M58.6,43.4C55.9,50.6,47.5,72.6,40.1,79c-8.8,7.7-14,4.4-15-2.5c-0.2-1.7-0.5-3.2-0.6-4.6
		c-0.2,1.7-0.3,3.4-0.3,5.1c0.3,7.2,3.6,14.1,5.2,14.6S40.6,89.1,47.6,76c6-11.4,10-24.8,11.6-30.2C59.7,44.5,59.3,43.7,58.6,43.4z"
		/>
	<path class="st4" d="M58.7,38.6C56.2,52.1,51.9,65.2,46,77.5c-6.5,13.4-14.2,16.2-15.9,20.7c-0.9,2.4-3.2,8.8-5.2,14.2
		c0.4,0.3,0.8,0.6,1.2,0.9l6.1-15.1c0.5-0.5,1.8-1.5,1.8-1.5l0,0c4.4-3.4,10.2-8.2,14.8-17.7c9.8-20.3,12.8-35.2,13.3-37.9
		c-0.1-0.4-0.3-0.9-0.6-1.2C58.9,36.6,58.7,38.6,58.7,38.6z"/>
	<path class="st4" d="M105.9,107.4c-2-4.4-4.1-9-5-10.9c-2.1-4.4-4.5-2.6-12.1-15.4C81.7,68.7,75.7,55.6,71,42c0,0-3.6,1-5.4,0.5
		c-0.7-0.1-1.2-0.5-1.5-1.1c0.2,0.6,4,16.1,16.5,37.4c5.4,9.2,11.6,13.4,16.2,16.5l0,0c0,0,1.4,1,2,1.4l6,11.9
		C105.2,108.2,105.6,107.8,105.9,107.4z"/>
	<path class="st5" d="M60.9,31.3c1.2-6.6-0.9-17.1-6.3-17.5c-4.9-0.4-6,4-2.8,7.6c2.5,2.8,5.8,5.9,6.9,8.7
		C60.2,33.7,60.6,32.9,60.9,31.3z"/>
	<path class="st5" d="M64.7,31.7c0.1-4.3,2.3-12.4,6.3-12.2c3,0.1,4,3.6,1.4,5.9c-2.1,1.9-4.8,3.9-5.8,5.9
		C65.4,33.6,64.7,32.9,64.7,31.7z"/>
	<path class="st3" d="M66.7,31.2c1-2,3.7-4,5.8-5.9c2.4-2.1,1.7-5.2-0.8-5.8c0.5,1.2,0.9,2.9,0.3,4.1c-1.1,2-4.6,3.3-5.9,6.4
		c-0.4,0.9-0.7,1.8-0.9,2.7C65.5,32.9,66,32.5,66.7,31.2z"/>
	<path class="st3" d="M53.4,13.8c-3.8,0.4-4.5,4.3-1.5,7.6c2.5,2.8,5.8,5.9,6.9,8.7c0.3,0.9,0.7,1.7,1.2,2.5c0.2-5-3.7-9-6.7-12.7
		C51.4,17.4,52.3,15.2,53.4,13.8z"/>
	<path class="st4" d="M61.4,39.9c-0.7,2.5-27.6-6.6-27-8.8C35.2,28.6,62.1,37.3,61.4,39.9z"/>
	<path class="st6" d="M68.4,46c0.3-0.3,0.7-0.2,1,0.1s0.2,0.7-0.1,1c-0.3,0.3-0.7,0.2-1-0.1c-0.1-0.1-0.2-0.3-0.2-0.5
		C68.1,46.3,68.2,46.1,68.4,46z M73.8,45.2c0.3-0.3,0.7-0.2,1,0.1s0.2,0.7-0.1,1c-0.3,0.3-0.7,0.2-1-0.1c-0.1-0.1-0.2-0.3-0.2-0.5
		C73.5,45.5,73.6,45.3,73.8,45.2L73.8,45.2z M98.5,50.6c0.3-0.3,0.7-0.2,1,0.1s0.2,0.7-0.1,1c-0.3,0.3-0.7,0.2-1-0.1
		c-0.1-0.1-0.2-0.3-0.2-0.5C98.2,50.9,98.3,50.7,98.5,50.6L98.5,50.6z M93.1,49.1c0.3-0.3,0.7-0.2,1,0.1s0.2,0.7-0.1,1
		c-0.3,0.3-0.7,0.2-1-0.1c-0.1-0.1-0.2-0.3-0.2-0.5C92.8,49.4,92.9,49.2,93.1,49.1L93.1,49.1z M84.6,49.1c0.3-0.3,0.7-0.2,1,0.1
		s0.2,0.7-0.1,1c-0.3,0.3-0.7,0.2-1-0.1c-0.1-0.1-0.2-0.3-0.2-0.5C84.3,49.4,84.4,49.2,84.6,49.1L84.6,49.1z M73.8,48.3
		c0.3-0.3,0.7-0.2,1,0.1s0.2,0.7-0.1,1c-0.3,0.3-0.7,0.2-1-0.1c-0.1-0.1-0.2-0.3-0.2-0.5C73.5,48.6,73.6,48.4,73.8,48.3z M85.4,58.3
		c0.3-0.3,0.7-0.2,1,0.1s0.2,0.7-0.1,1c-0.3,0.3-0.7,0.2-1-0.1c-0.1-0.1-0.2-0.3-0.2-0.5C85.1,58.6,85.2,58.4,85.4,58.3L85.4,58.3z
		 M97.7,67.6c0.3-0.3,0.7-0.2,1,0.1s0.2,0.7-0.1,1c-0.3,0.3-0.7,0.2-1-0.1c-0.1-0.1-0.2-0.3-0.2-0.5C97.4,67.9,97.5,67.7,97.7,67.6z
		 M97.7,56.8c0.3-0.3,0.7-0.2,1,0.1s0.2,0.7-0.1,1c-0.3,0.3-0.7,0.2-1-0.1c-0.1-0.1-0.2-0.3-0.2-0.5C97.4,57.1,97.5,56.9,97.7,56.8
		L97.7,56.8z M86.9,49c0.3-0.3,0.7-0.2,1,0.1s0.2,0.7-0.1,1c-0.3,0.3-0.7,0.2-1-0.1c-0.1-0.1-0.2-0.3-0.2-0.5
		C86.6,49.4,86.7,49.2,86.9,49z M71.5,51.4c0.3-0.3,0.7-0.2,1,0.1s0.2,0.7-0.1,1c-0.3,0.3-0.7,0.2-1-0.1c-0.1-0.1-0.2-0.3-0.2-0.5
		C71.2,51.7,71.3,51.5,71.5,51.4z M84.6,66c0.3-0.3,0.7-0.2,1,0.1s0.2,0.7-0.1,1c-0.3,0.3-0.7,0.2-1-0.1c-0.1-0.1-0.2-0.3-0.2-0.5
		C84.3,66.3,84.4,66.1,84.6,66z M91.5,62.9c0.3-0.3,0.7-0.2,1,0.1s0.2,0.7-0.1,1c-0.3,0.3-0.7,0.2-1-0.1c-0.1-0.1-0.2-0.3-0.2-0.5
		C91.2,63.2,91.3,63,91.5,62.9L91.5,62.9z M80,58.3c0.3-0.3,0.7-0.2,1,0.1s0.2,0.7-0.1,1c-0.3,0.3-0.7,0.2-1-0.1
		c-0.1-0.1-0.2-0.3-0.2-0.5C79.7,58.6,79.8,58.4,80,58.3z M92.3,53.7c0.3-0.3,0.7-0.2,1,0.1s0.2,0.7-0.1,1c-0.3,0.3-0.7,0.2-1-0.1
		c-0.1-0.1-0.2-0.3-0.2-0.5C92,54,92.1,53.8,92.3,53.7z M95.4,49c0.3-0.3,0.9-0.2,1.2,0.1c0.3,0.3,0.2,0.9-0.1,1.2
		c-0.3,0.3-0.9,0.2-1.2-0.1c-0.1-0.1-0.2-0.3-0.2-0.5C95.1,49.4,95.2,49.2,95.4,49z M77.7,51.4c0.3-0.3,0.9-0.2,1.2,0.1
		c0.3,0.3,0.2,0.9-0.1,1.2c-0.3,0.3-0.9,0.2-1.2-0.1c-0.1-0.1-0.2-0.3-0.2-0.5C77.3,51.7,77.5,51.5,77.7,51.4z M81.5,52.9
		c0.3-0.3,0.9-0.2,1.2,0.1c0.3,0.3,0.2,0.9-0.1,1.2c-0.3,0.3-0.9,0.2-1.2-0.1c-0.1-0.1-0.2-0.3-0.2-0.5C81.2,53.3,81.3,53,81.5,52.9
		L81.5,52.9z M75.4,54.5c0.3-0.3,0.9-0.2,1.2,0.1c0.3,0.3,0.2,0.9-0.1,1.2c-0.3,0.3-0.9,0.2-1.2-0.1c-0.1-0.1-0.2-0.3-0.2-0.5
		C75,54.8,75.1,54.6,75.4,54.5L75.4,54.5z M70.8,45.2c0.3-0.3,0.9-0.2,1.2,0.1c0.3,0.3,0.2,0.9-0.1,1.2c-0.3,0.3-0.9,0.2-1.2-0.1
		c-0.1-0.1-0.2-0.3-0.2-0.5C70.4,45.6,70.5,45.3,70.8,45.2z M76.2,48.3c0.3-0.3,0.9-0.2,1.2,0.1c0.3,0.3,0.2,0.9-0.1,1.2
		c-0.3,0.3-0.9,0.2-1.2-0.1c-0.1-0.1-0.2-0.3-0.2-0.5C75.8,48.7,75.9,48.4,76.2,48.3z M86.2,54.4c0.3-0.3,0.9-0.2,1.2,0.1
		c0.3,0.3,0.2,0.9-0.1,1.2c-0.3,0.3-0.9,0.2-1.2-0.1c-0.1-0.1-0.2-0.3-0.2-0.5C85.8,54.8,85.9,54.6,86.2,54.4L86.2,54.4z M80.8,48.3
		c0.3-0.3,0.9-0.2,1.2,0.1c0.3,0.3,0.2,0.9-0.1,1.2c-0.3,0.3-0.9,0.2-1.2-0.1c-0.1-0.1-0.2-0.3-0.2-0.5
		C80.4,48.7,80.5,48.4,80.8,48.3L80.8,48.3z M94.6,55.2c0.3-0.3,0.9-0.2,1.2,0.1c0.3,0.3,0.2,0.9-0.1,1.2c-0.3,0.3-0.9,0.2-1.2-0.1
		c-0.1-0.1-0.2-0.3-0.2-0.5C94.3,55.6,94.4,55.3,94.6,55.2L94.6,55.2z M89.2,50.6c0.3-0.3,0.9-0.2,1.2,0.1c0.3,0.3,0.2,0.9-0.1,1.2
		c-0.3,0.3-0.9,0.2-1.2-0.1c-0.1-0.1-0.2-0.3-0.2-0.5C88.9,51,89,50.7,89.2,50.6L89.2,50.6z M37.5,56.8c0.1,0.2,0,0.5-0.2,0.7
		c-0.4-0.3-0.5-0.8-0.2-1.1c0,0,0.1-0.1,0.1-0.1C37.4,56.3,37.6,56.5,37.5,56.8L37.5,56.8z M32.5,61.8c0.1,0.2,0,0.5-0.2,0.7
		c-0.4-0.3-0.5-0.8-0.2-1.1c0,0,0.1-0.1,0.1-0.1C32.5,61.3,32.6,61.6,32.5,61.8L32.5,61.8z M45.8,53.8c0.1,0.2,0,0.5-0.2,0.7
		c-0.4-0.3-0.5-0.8-0.2-1.1c0,0,0.1-0.1,0.1-0.1C45.7,53.3,45.9,53.5,45.8,53.8L45.8,53.8z M40.9,60.3c0.1,0.2,0,0.5-0.2,0.7
		c-0.4-0.3-0.5-0.8-0.2-1.1c0,0,0.1-0.1,0.1-0.1C40.8,59.8,41,60.1,40.9,60.3L40.9,60.3z M50.4,53.3c0.1,0.2,0,0.5-0.2,0.7
		c-0.4-0.3-0.5-0.8-0.2-1.1c0,0,0.1-0.1,0.1-0.1C50.3,52.8,50.5,53.1,50.4,53.3L50.4,53.3z M55.5,49.8C55.4,50,55.2,50,55,49.9
		c-0.2-0.1-0.2-0.4-0.1-0.5c0.1-0.1,0.2-0.1,0.3-0.2C55.5,49.3,55.6,49.6,55.5,49.8L55.5,49.8z M51.7,59.5c0.1,0.2,0,0.5-0.2,0.7
		c-0.4-0.3-0.5-0.8-0.2-1.1c0,0,0.1-0.1,0.1-0.1C51.6,59,51.7,59.2,51.7,59.5z M45.4,58.5c0.1,0.2,0,0.5-0.2,0.7
		c-0.4-0.3-0.5-0.8-0.2-1.1c0,0,0.1-0.1,0.1-0.1C45.3,58,45.4,58.2,45.4,58.5L45.4,58.5z M49.2,56.7c0.1,0.2,0,0.5-0.2,0.7
		c-0.4-0.2-0.5-0.7-0.3-1.1c0-0.1,0.1-0.1,0.1-0.2C49,56.1,49.2,56.4,49.2,56.7L49.2,56.7z M30.5,54.2c0.1,0.2,0,0.5-0.2,0.7
		c-0.4-0.3-0.5-0.8-0.2-1.1c0,0,0.1-0.1,0.1-0.1C30.4,53.7,30.5,53.9,30.5,54.2z M34.7,60c0.1,0.2,0,0.4-0.2,0.6
		c-0.3-0.2-0.4-0.7-0.2-1c0,0,0-0.1,0.1-0.1C34.6,59.6,34.7,59.8,34.7,60z M47.4,63.6c-0.1,0.1-0.3,0.2-0.5,0.1
		c-0.1-0.1-0.2-0.3-0.1-0.5c0.1-0.1,0.1-0.1,0.2-0.1C47.3,63.2,47.4,63.4,47.4,63.6L47.4,63.6z M36.2,69.2c0.1,0.2,0,0.4-0.2,0.6
		c-0.3-0.2-0.4-0.7-0.1-1c0,0,0,0,0.1-0.1C36.2,68.8,36.3,69,36.2,69.2z M43.4,71.7c0.1,0.2,0,0.4-0.2,0.6c-0.3-0.2-0.4-0.7-0.2-1
		c0,0,0-0.1,0.1-0.1C43.3,71.3,43.4,71.5,43.4,71.7z M55.7,47c-0.1,0.1-0.3,0.2-0.5,0.1c-0.1-0.1-0.2-0.3-0.1-0.5
		c0.1-0.1,0.1-0.1,0.2-0.1C55.7,46.6,55.8,46.8,55.7,47z M55.3,56c-0.1,0.2-0.3,0.2-0.4,0.1c-0.2-0.1-0.2-0.3-0.1-0.4
		c0.1-0.1,0.2-0.2,0.3-0.2C55.2,55.6,55.3,55.8,55.3,56z M39.7,55c0.1,0.2,0,0.4-0.2,0.6c-0.3-0.2-0.4-0.7-0.2-1c0,0,0-0.1,0.1-0.1
		C39.6,54.6,39.8,54.8,39.7,55z M29.6,63.5c0.1,0.2,0,0.4-0.2,0.6c-0.3-0.2-0.4-0.7-0.2-1c0,0,0-0.1,0.1-0.1
		C29.5,63.1,29.6,63.3,29.6,63.5z M30.5,74.3c0.1,0.2,0,0.4-0.2,0.6c-0.3-0.2-0.4-0.7-0.2-1c0,0,0-0.1,0.1-0.1
		C30.4,73.9,30.5,74.1,30.5,74.3L30.5,74.3z M42,64.1c0.1,0.2,0,0.4-0.2,0.6c-0.3-0.2-0.4-0.7-0.2-1c0,0,0-0.1,0.1-0.1
		C41.9,63.6,42,63.8,42,64.1z M52.7,53.1c-0.1,0.1-0.3,0.2-0.5,0.1c-0.1-0.1-0.2-0.3-0.1-0.5c0.1-0.1,0.1-0.1,0.2-0.1
		C52.6,52.7,52.8,52.9,52.7,53.1z M42,54.8c0.1,0.2,0,0.4-0.2,0.6c-0.3-0.2-0.4-0.7-0.2-1c0,0,0-0.1,0.1-0.1
		C41.9,54.4,42,54.6,42,54.8z M33.5,55.5c0.1,0.2,0,0.4-0.2,0.6c-0.3-0.2-0.4-0.7-0.2-1c0,0,0-0.1,0.1-0.1
		C33.5,55,33.6,55.2,33.5,55.5L33.5,55.5z M29.1,57.5c0.1,0.2,0,0.4-0.2,0.6c-0.3-0.2-0.4-0.7-0.2-1c0,0,0-0.1,0.1-0.1
		C29,57,29.1,57.2,29.1,57.5L29.1,57.5z M57.9,43.9c-0.1,0.1-0.3,0.2-0.5,0.1c-0.1-0.1-0.2-0.3-0.1-0.5c0.1-0.1,0.1-0.1,0.2-0.1
		C57.8,43.5,57.9,43.7,57.9,43.9z M57.9,50.4c-0.1,0.1-0.3,0.2-0.5,0.1c-0.1-0.1-0.2-0.3-0.1-0.5c0.1-0.1,0.1-0.1,0.2-0.1
		C57.8,50,57.9,50.2,57.9,50.4L57.9,50.4z"/>
	<path class="st6" d="M86.5,36.1c0,0,7.4,18.3,12.4,30.7s5.8,21.1,5.8,21.1s1.3-9-3.7-22.1S88.4,34.9,88.4,34.9L86.5,36.1z"/>
	<path class="st6" d="M41.4,32c0,0-7.7,22.1-11.7,35c-2.4,7.9-3.4,16.2-2.9,24.4c-1.9-8.4-1.6-17.1,0.8-25.3
		c3.9-13.5,11.6-34.5,11.6-34.5L41.4,32z"/>
	<path class="st4" d="M65,41c1.8,4.3,28.2-8.7,26.2-11.1C88,26.3,63.2,36.7,65,41z"/>
	<path class="st6" d="M88.5,29.2c0.9-0.1,1.9,0.2,2.6,0.8c1.8,2-17.6,11.9-24.2,11.9c-1.1,0-1.8-0.3-2-0.8
		C63.5,37.3,81.4,29.2,88.5,29.2 M88.6,28.5c-7.3,0-21.2,6.6-23.8,10.5c-0.6,0.7-0.7,1.6-0.4,2.4c0.4,0.9,1.3,1.3,2.7,1.3
		c5.8,0,23.3-8.2,24.9-11.7c0.3-0.5,0.2-1-0.2-1.5C90.9,28.7,89.7,28.3,88.6,28.5L88.6,28.5L88.6,28.5z"/>
	<path class="st6" d="M56.6,36.6c-14-5.6-21.2-6.5-22.1-5.4c-0.1,0.2-0.4,0.2-0.5,0c-0.2-0.1-0.2-0.4-0.1-0.5c0,0,0,0,0,0
		c1.9-2,13.6,1.4,20.9,4.4c5.2,2.1,7.9,4.2,7.5,5.9C62.2,41.2,62.2,38.8,56.6,36.6z"/>
</g>
</svg>
