<svg id="Layer_1" data-name="Layer 1" xmlns="http://www.w3.org/2000/svg" viewBox="0 0 125.01 125.01"><defs><style>.cls-1{fill:#42d3ff;}.cls-1,.cls-10,.cls-2,.cls-3,.cls-6,.cls-9{fill-rule:evenodd;}.cls-2{fill:#dcf3fa;}.cls-3{fill:#b6d6e1;}.cls-4{fill:#ffc56e;}.cls-5{fill:#ffbb54;}.cls-6{fill:#ffb13d;}.cls-7{fill:#2484f2;}.cls-8{fill:#146acc;}.cls-9{fill:#ff7c4d;}.cls-10{fill:#ff571a;}</style></defs><title>spritzr-date-icons-ice-cream</title><g id="ice_cream" data-name="ice cream"><path class="cls-1" d="M62.5,0A62.5,62.5,0,1,1,0,62.5,62.5,62.5,0,0,1,62.5,0Z" transform="translate(0)"/><path class="cls-2" d="M46.58,61.7s-2.08.66-1.8,2c0.45,2.22,3.43,2.33,6.3,2.92h21.6c1.74-.48,4.27-1.12,4.72-2.92s-2-2.92-2-2.92S75.6,46.66,61,46,46.58,61.7,46.58,61.7Z" transform="translate(0)"/><path class="cls-3" d="M64.08,65a119.85,119.85,0,0,1-14.58-.28c-1.45-.16-3.4-0.21-4.43-0.22,0.92,1.5,3.5,1.65,6,2.17h21.6c1.74-.48,4.27-1.12,4.72-2.92s-2-2.92-2-2.92,0.15-9.74-8.14-13.45l-14.55.7a13.38,13.38,0,0,0-4.81,6.56c1.26-.53,4.77-1.32,14.55-1.36C69.39,53.25,73,56,73,56s0.55,1-.23,3.48c-0.85,2.74-2.07,3.23-2.07,3.23l3.64-.45a1.31,1.31,0,0,1-.05,1.88C73.73,64.93,69.7,64.83,64.08,65Z" transform="translate(0)"/><path class="cls-4" d="M75.08,65.75s-4.39.43-14.37,0.43a122.8,122.8,0,0,1-12.93-.43l3.69,14.78,1,0.16,2.25,20.78a20.88,20.88,0,0,0,6.57,1.23,29.2,29.2,0,0,0,7.59-1.23l1.87-20.79,1-.14Z" transform="translate(0)"/><path class="cls-5" d="M75.08,65.75s-3.39.33-11,.41L63.16,81.65l0.94,0-1.45,21a30.75,30.75,0,0,0,6.26-1.18l1.87-20.79,1-.14Z" transform="translate(0)"/><path class="cls-6" d="M61.33,81.36a66,66,0,0,1-8.81-.67l0.14,1.25a65.81,65.81,0,0,0,8.68.65,75.7,75.7,0,0,0,9.36-.67l0.11-1.25A76,76,0,0,1,61.33,81.36Z" transform="translate(0)"/><path class="cls-6" d="M74.85,66.77l0.23-1s-4.39.43-14.37,0.43a122.8,122.8,0,0,1-12.93-.43l0.26,1a111.76,111.76,0,0,0,12.67.5C69.4,67.28,73.84,66.88,74.85,66.77Z" transform="translate(0)"/><path class="cls-6" d="M61.33,101.76a25.71,25.71,0,0,1-6.64-1l0.08,0.7a20.88,20.88,0,0,0,6.57,1.23,29.2,29.2,0,0,0,7.59-1.23l0.08-.87A29.87,29.87,0,0,1,61.33,101.76Z" transform="translate(0)"/><path class="cls-7" d="M77,49S77.57,35.6,63,33.85,47.5,48.72,47.5,48.72s-1.37,2.19-.71,3.45c1.17,2.23,2.2.71,3.87,0.55,6.19-.58,12.47-0.9,19.08.48,0.14,0.35.26,0.71,0.38,1.06,0.46,1.39.09,1.93-.07,3.31s2.62,2,2.16-.31c-0.43-2.15-1-2.6.07-3.44L73,54c1.66,0.49,3.7.81,4.28-1A7,7,0,0,0,77,49Z" transform="translate(0)"/><path class="cls-8" d="M65.28,51.2A42.87,42.87,0,0,0,49.77,52a8.22,8.22,0,0,1-2.83.44c1.11,1.86,2.13.46,3.73,0.31,6.19-.58,12.47-0.9,19.08.48a7.11,7.11,0,0,0-.65-1.29C68,51.66,66.68,51.4,65.28,51.2Z" transform="translate(0)"/><path class="cls-8" d="M77,49s0.48-11.31-10.67-14.52L55.18,35a14,14,0,0,0-6.34,7.8c3-1.49,9-3.8,15.46-3.13a32.66,32.66,0,0,1,9.65,2.6S75.26,43.13,75,45.5c-0.41,3.73-2.27,5.06-2.27,5.06l2.64-.35a2.16,2.16,0,0,1-.58,1.88,1.66,1.66,0,0,1-1.44.54l0,0.05,0.16-.27a1.32,1.32,0,0,0-1.89.67c-0.58,1.42.08,3,.08,4.17,0,0.69-.88.5-1.6,0.23v0.08c-0.15,1.39,2.62,2,2.16-.31-0.43-2.15-1-2.6.07-3.44L73,54c1.66,0.49,3.7.81,4.28-1A7,7,0,0,0,77,49Zm-4.46,4.58a2,2,0,0,0,.26-0.22A2,2,0,0,1,72.53,53.62Zm0.34-.32L73,53.12Zm0.36-.48L73.12,53Z" transform="translate(0)"/><path class="cls-9" d="M47.52,37.88a2.66,2.66,0,0,0-.58,2.53c0.52,1.33,1.63,2,4.31.85,7.23-3.17,13.8-3.36,22.06-1.07,1.73,0.48,3.51.35,3.87-1.47A2.62,2.62,0,0,0,75.84,36s0.73-14.49-13.91-14.43S47.52,37.88,47.52,37.88Z" transform="translate(0)"/><path class="cls-10" d="M51.25,41.26c7.23-3.17,13.8-3.36,22.06-1.07,1.73,0.48,3.51.35,3.87-1.47A2.62,2.62,0,0,0,75.84,36S76.16,29.54,72,25.26a13.45,13.45,0,0,1,2.16,5.44c0.8,5.09-1.27,5.89-1.27,5.89l2.47,0.32s0.76,0.79-.38,1.68c-0.92.71-5-1.16-10.12-1.38a35.11,35.11,0,0,0-14.81,3,6.22,6.22,0,0,1-3,.58C47.67,41.84,48.81,42.34,51.25,41.26Z" transform="translate(0)"/><path class="cls-2" d="M51.32,64.25A6.25,6.25,0,0,1,53,66.56c0.15,0.92-.15,2.92.92,2.92s1.85-2.62,2.31-1.23a21.76,21.76,0,0,1,.31,6.31c-0.15,1.39,2.62,2,2.16-.31a24.56,24.56,0,0,1-.31-7.39A2.42,2.42,0,0,1,60.56,65Z" transform="translate(0)"/><path class="cls-3" d="M59.35,65.46c-0.56-.17-1.6-0.22-1.75,1.75-0.2,2.7.7,4.4,0.7,6.2s-1.12,1.28-1.73.94c0,0.07,0,.16,0,0.22-0.15,1.39,2.62,2,2.16-.31a24.56,24.56,0,0,1-.31-7.39A2.06,2.06,0,0,1,59.35,65.46Z" transform="translate(0)"/><path class="cls-3" d="M53.94,69.48c1,0,1.78-2.4,2.25-1.37a1.27,1.27,0,0,0-.09-0.41c-0.3-.5-0.6-0.5-1.6.3a1.23,1.23,0,0,1-1.39.17C53.17,68.87,53.34,69.48,53.94,69.48Z" transform="translate(0)"/></g></svg>