<?xml version="1.0" encoding="utf-8"?>
<!-- Generator: Adobe Illustrator 19.2.1, SVG Export Plug-In . SVG Version: 6.00 Build 0)  -->
<svg version="1.1" id="Layer_1" xmlns="http://www.w3.org/2000/svg" xmlns:xlink="http://www.w3.org/1999/xlink" x="0px" y="0px"
	 width="660px" height="330px" viewBox="0 0 660 330" style="enable-background:new 0 0 660 330;" xml:space="preserve">
<style type="text/css">
	.st0{fill-rule:evenodd;clip-rule:evenodd;fill:#326AB4;}
	.st1{fill:#F5FDFF;}
	.st2{fill-rule:evenodd;clip-rule:evenodd;fill:#FF571A;}
	.st3{fill:#FF9900;}
</style>
<path class="st0" d="M0,0h660v330H0V0z"/>
<path class="st1" d="M219.7,160.7c0.3,3.2,6.1,5.3,10.6,6.9c6.8,2.4,14.5,6.5,13.5,15.1c-1.4,11.5-14.7,14.2-24.8,13.9
	c-7.8-0.3-19.5-2.7-19.1-12.1c0.2-4,3.3-8.3,9.3-8.3c3.5,0,6.9,2.2,7.4,2.8c0.3,0.5-0.4,1.9-0.6,3.6c-0.9,7.9,10.2,8.1,11.2,1.5
	c0.6-4.9-6.2-6.9-12.2-9.9c-5.5-2.8-12-5.6-11.4-14c0.1-1.6,0.5-3.1,1.1-4.4c-5.2-1.8-10.5-1-11.8,3.5c-0.4,1.5-4.3,1.4-6.1-1.7
	c-1.5-2.7,0-8.8,6.8-10.5c5.2-1.3,9.5,0,16.4,2.5c5.3-4.1,11.1-5.6,17.3-5.5c10.8,0.3,19.4,6.6,16.7,13.9
	C240.8,166.6,227.7,164.6,219.7,160.7z M221,154c3.3,1.4,8.1,2.6,8.8,0.4C230.6,151.8,222.9,151.4,221,154z M287.1,178
	c-1.1,9.5-7.1,18.5-16.2,18.5c-4.8,0-7.8-2.4-9.5-6.3c-1.3,10.5-2.5,20.9-2.5,20.9c0,0.3-0.4,0.4-0.4,0.4h-13.9c0,0-0.3-0.1-0.2-0.3
	c0,0,3.8-31.9,4.4-36.7c1.3-11-3.1-8.7-2.3-10.6c1-2.2,5.1-5,9-5c4.8,0,8.1,3.1,8.5,8c2.9-4.6,7.1-8,11.9-8
	C284.7,158.9,288.3,168.7,287.1,178z M272.9,178c0.7-5.2-0.6-9.4-4-9.4s-5.7,4.2-6.4,9.4c-0.6,5.2,0.7,9.4,4.1,9.4
	C269.9,187.4,272.2,183.2,272.9,178z M324.7,166.8c-0.7,5.8-5.1,9-9.8,9c-1.7,0-3.1-1-3.3-1.4c-0.2-0.4,0.3-1.1,0.5-2.5
	c0.3-2.2-0.3-3.1-1.4-3.1c-2,0-2.8,3.5-3.3,7.8c-1,7.8-2.2,18.2-2.2,18.2c-0.1,0.3-0.3,0.3-0.3,0.3h-14c0,0-0.3,0-0.2-0.3
	c0,0,2.5-15.6,3.1-20.3c1.4-11-3.7-8.7-2.8-10.6c1-2.2,5.1-4.9,9-4.9c4.7,0,7.9,2.8,8.3,7.6c2.4-4.6,6.3-7.6,9.7-7.6
	C322.3,159,325.3,161.8,324.7,166.8z M329.8,160.1h13.9c0,0,0.3,0.1,0.3,0.3c0,0-2.5,15.9-3.1,20.7c-1.3,11,3.7,8.5,2.8,10.4
	c-1,2.2-5.1,4.9-9,4.9c-5.6,0-9.2-4-8.4-10.6c0.7-5.4,3.1-25.4,3.1-25.4C329.5,160.1,329.8,160.1,329.8,160.1z M372,190.2
	c-2.3,3.7-7.8,6.3-12.8,6.3c-2.2-0.1-4.3-0.6-6-1.6c-2.6-1.7-4.1-4.4-3.6-8.8l2.4-18.5h-3.5c0,0-0.3,0-0.3-0.3l0.7-6.8
	c0-0.3,0.3-0.3,0.3-0.3l18.7-11.4c0,0,0.3,0.1,0.2,0.3c0,0-0.6,5-1.4,10.9h8.5c0,0,0.2,0,0.1,0.3l-0.6,6.8c0,0.3-0.3,0.3-0.3,0.3
	H366l-1.8,13.1l-0.1,1.1c-0.1,0.8-0.1,1.5-0.1,2.2c0.2,5.6,4.7,4.4,7.4,4.4C372.6,188.4,372.6,189.3,372,190.2z M396.5,196.3
	c-4-0.7-13.1-3.3-20.6-1.2c0,0-0.3,0-0.1-0.3c0-2.9-0.6-5,0.1-7.9c1.2-5.1,11.3-11.5,16.8-14.4c1.9-1,4-1.7,6-2.5
	c-8.5-0.6-15,0.1-20.9,1.3c-0.3,0.1-0.3-0.3-0.3-0.3c-0.1-0.1-1.7-7.7,4.9-11c6.1-3.3,14.9,1.7,28.4,0.4c0.1,0,0.3,0,0.3,0.3
	c-0.3,2.7,0.3,5.6-0.3,8.2c-1.2,4.5-7.6,9.4-14.9,13.1c-2.2,1.1-4.5,2.4-7,3.5h7.4c11.2,0,11-3.2,11.9-2.3c0.7,0.6,1,1.9,1.1,3
	C409.6,194.7,402.8,197.4,396.5,196.3z M448.5,166.8c-0.7,5.8-4.7,9-9.4,9c-1.7,0-3.1-1-3.3-1.4c-0.2-0.4,0.3-1.1,0.5-2.5
	c0.3-2.2-0.3-3.1-1.4-3.1c-2,0-2.8,3.5-3.3,7.8c-1,7.8-2.2,18.2-2.2,18.2c-0.1,0.3-0.3,0.3-0.3,0.3h-14c0,0-0.3,0-0.2-0.3
	c0,0,2.5-15.6,3.1-20.3c1.4-11-3.7-8.7-2.8-10.6c1-2.2,5.1-5.1,9-5.1c4.7,0,7.9,3,8.3,7.8c2.4-4.6,5.9-7.8,9.3-7.8
	C446.2,158.8,449.1,161.8,448.5,166.8z"/>
<path class="st2" d="M338.1,156.5c-2.2-1.8-4.4-3.8-6.5-5.4c-2.6-2-4.4-5.5-3-8.4c0.9-1.9,3.5-2.9,5.4-2.7c2.7,0.2,4.4,2.3,4.4,2.3
	s1.7-1.2,4.7-1.3c3,0,4.5,1.7,4.8,4.5c0.3,2.6-0.7,5.2-4.1,7.4c-0.9,0.6-2.5,1.6-3.5,2.2C339.5,155.7,338.6,156.2,338.1,156.5z
	 M317.2,135.8c-2.3-1.1-4.3-2.5-6.4-3.4c-2.6-1.2-4.4-3.9-3.8-6.7c0.4-1.8,2.1-3,3.7-3.3c2.4-0.3,4.2,1.1,4.2,1.1s0.8-1.4,3.4-2.1
	c2.5-0.6,4.4,1,5.3,3.3c0.8,2.1,0.5,4.5-2,7c-0.7,0.7-2,1.6-2.7,2.3C318.4,134.8,317.6,135.4,317.2,135.8z M335.1,121.2
	c-0.9-1.7-1.8-3.7-2.6-5.2c-1-1.8-0.8-4,0.8-5.4c1-0.9,2.7-0.8,3.8-0.2c1.6,0.8,2,2.3,2,2.3s1.5-0.6,3.3,0.2c1.8,0.8,2.6,2.3,2,4
	c-0.5,1.6-2.3,3-4.9,3.5c-0.7,0.1-1.9,0.3-2.7,0.4C336.1,120.9,335.5,121.1,335.1,121.2z"/>
<path class="st3" d="M328.6,118.2c-2.9,0-3.2,4.6,0,4.6C331.6,122.9,331.8,118.2,328.6,118.2z M324.9,140.4c-3.2-0.1-2.9-4.6,0-4.6
	C328.1,135.7,327.9,140.4,324.9,140.4z"/>
</svg>
