<?xml version="1.0" encoding="utf-8"?>
<!-- Generator: Adobe Illustrator 19.2.1, SVG Export Plug-In . SVG Version: 6.00 Build 0)  -->
<svg version="1.1" id="Layer_1" xmlns="http://www.w3.org/2000/svg" xmlns:xlink="http://www.w3.org/1999/xlink" x="0px" y="0px"
	 width="125px" height="125px" viewBox="0 0 125 125" style="enable-background:new 0 0 125 125;" xml:space="preserve">
<style type="text/css">
	.st0{fill-rule:evenodd;clip-rule:evenodd;fill:#00B86B;}
	.st1{fill-rule:evenodd;clip-rule:evenodd;fill:#FF9E6F;}
	.st2{fill-rule:evenodd;clip-rule:evenodd;fill:#FF8F57;}
	.st3{fill:#EBEBEB;}
</style>
<g id="Football">
	<path class="st0" d="M62.5,0C97,0,125,28,125,62.5C125,97,97,125,62.5,125C28,125,0,97,0,62.5C0,28,28,0,62.5,0z"/>
	<path class="st1" d="M80.5,91.1c23.9-14.9,36.6-45.2,30-55.8c-6.6-10.6-39.4-12.4-63.3,2.5C23.3,52.7,10.2,83.6,16.7,93.9
		C23.1,104.3,56.6,106,80.5,91.1z"/>
	<path class="st2" d="M110.8,36c-1.2,6.7-7.4,21.4-36.3,40.5C41.2,98.6,22.1,94.2,15.6,91.4c0.3,0.9,0.6,1.8,1.1,2.5
		c6.5,10.3,39.9,12.1,63.8-2.8C103.9,76.5,116.6,47.1,110.8,36z"/>
	<path class="st3" d="M79.4,43.2c-0.4-0.9-1.4-1.3-2.3-1c-0.2,0.1-1,0.4-2.4,1l-2-3.5c-0.5-0.8-1.5-1.1-2.4-0.7
		c-0.8,0.5-1.1,1.5-0.7,2.4l1.9,3.3c-2.1,1-4.6,2.4-7.3,4l-2.2-3c-0.6-0.8-1.7-1-2.4-0.4c-0.8,0.6-1,1.7-0.4,2.4l2,2.8
		c-2.3,1.4-4.7,3.1-7.1,4.9l-2.7-3.2c-0.6-0.7-1.7-0.8-2.5-0.2c-0.7,0.6-0.8,1.7-0.2,2.5l2.6,3.1c-1.9,1.5-3.8,3.2-5.7,4.9L43.1,60
		c-0.7-0.7-1.8-0.7-2.5,0c-0.7,0.7-0.7,1.8,0,2.5l2.6,2.6c-0.3,0.3-0.6,0.6-0.9,1c-0.7,0.7-0.6,1.8,0.1,2.5c0.3,0.3,0.8,0.5,1.2,0.5
		c0.5,0,0.9-0.2,1.3-0.5c0.3-0.3,0.6-0.6,0.9-0.9l2.1,2c0.3,0.3,0.8,0.5,1.2,0.5c0.5,0,0.9-0.2,1.2-0.5c0.7-0.7,0.7-1.8,0-2.5l-2-2
		c1.8-1.7,3.6-3.2,5.5-4.7l1.7,2c0.3,0.4,0.8,0.6,1.3,0.6c0.4,0,0.8-0.1,1.1-0.4c0.7-0.6,0.8-1.7,0.2-2.5l-1.6-1.9
		c2.4-1.7,4.7-3.3,6.9-4.7l1.9,2.6c0.3,0.5,0.9,0.7,1.4,0.7c0.4,0,0.7-0.1,1-0.3c0.8-0.6,1-1.7,0.4-2.4l-1.7-2.4
		c2.7-1.6,5.1-2.9,7-3.8l1.4,2.5c0.3,0.6,0.9,0.9,1.5,0.9c0.3,0,0.6-0.1,0.9-0.2c0.8-0.5,1.1-1.5,0.7-2.4l-1.3-2.3
		c1.2-0.5,1.9-0.8,1.9-0.8C79.3,45.1,79.8,44.1,79.4,43.2z"/>
</g>
</svg>
