<?xml version="1.0" encoding="utf-8"?>
<!-- Generator: Adobe Illustrator 19.2.1, SVG Export Plug-In . SVG Version: 6.00 Build 0)  -->
<svg version="1.1" id="Layer_1" xmlns="http://www.w3.org/2000/svg" xmlns:xlink="http://www.w3.org/1999/xlink" x="0px" y="0px"
	 width="125px" height="125px" viewBox="0 0 125 125" style="enable-background:new 0 0 125 125;" xml:space="preserve">
<style type="text/css">
	.st0{fill-rule:evenodd;clip-rule:evenodd;fill:#FF7C4D;}
	.st1{fill-rule:evenodd;clip-rule:evenodd;fill:#DCF3FA;}
	.st2{fill:#CDE3EA;}
	.st3{fill-rule:evenodd;clip-rule:evenodd;fill:#B6D6E1;}
	.st4{fill-rule:evenodd;clip-rule:evenodd;fill:#CDE3EA;}
	.st5{fill:#B6D6E1;}
</style>
<g id="place_setting">
	<path class="st0" d="M62.5,0C97,0,125,28,125,62.5S97,125,62.5,125C28,125,0,97,0,62.5S28,0,62.5,0z"/>
	<path class="st1" d="M73.4,29.1c18.4,0,33.4,14.9,33.4,33.4S91.8,95.8,73.4,95.8S40,80.9,40,62.5S54.9,29.1,73.4,29.1z"/>
	<path class="st2" d="M24.3,64.5c0,4.6,0.2,17.9,0.1,20.8c0,2.2-1.1,3-2.6,3v0c0,0,0,0,0,0c0,0,0,0,0,0v0c-1.5,0-2.8-0.8-2.6-3
		c0.2-2.3,1.3-16.7,1.4-20.8c0.1-2.5,0.2-3.7-0.1-4.5c-0.1-0.2-0.3-0.3-0.5-0.5c-0.3-0.4-0.2-0.6-0.4-0.8c-0.6-0.5-1.7-1.3-1.5-4.8
		c0.5-10.1,2.4-16,3.1-17.3c1.1-1.9,3.3-1.4,3.3,0.5c0,5.8-0.1,15.4-0.1,21.7c0,0.1,0.1,0.2,0.1,0.4c0,0.2-0.1,0.6-0.1,0.8
		C24.3,63.9,24.3,66.2,24.3,64.5z"/>
	<path class="st3" d="M23.2,35.4v22.8l-0.5,1.5c0,0,0.6,16.3,0.7,23.2c0.1,4.3-2.5,4.7-3.7,3.3c-0.2-0.2-0.3-0.4-0.5-0.7
		c-0.1,2.1,1.2,2.9,2.6,2.9v0c0,0,0,0,0,0c0,0,0,0,0,0v0c1.5,0,2.6-0.8,2.6-3c0-2.8-0.1-15.3-0.1-20.3c0,0.2,0-1.9,0-5.1
		c0-0.2,0.1-0.6,0.1-0.8c0-0.2-0.1-0.3-0.1-0.4c0-6.3,0.1-15.8,0.1-21.7C24.5,36.1,23.9,35.5,23.2,35.4z"/>
	<path class="st2" d="M35.4,54.7c0.9-0.6,1.7-1.1,1.4-4.7c-0.6-6.3-0.5-10.7-0.7-12.8c-0.1-1-0.5-0.4-0.7,0.7
		c-0.5,3.6-0.3,7.4-0.3,9.6c0,0.9,0,1.5,0,1.9c0,0.4-0.6,0.5-0.7,0.1c-0.1-0.5-0.1-1.1-0.2-3c0-1.8,0-3.6-0.1-5.2
		c-0.1-1.4-0.1-4.3-0.3-4.8c-0.1-0.2-0.4-0.2-0.5,0c-0.2,0.6-0.4,3.8-0.4,5.3c0,1.7-0.2,7.3-0.2,7.8C32.7,50,32.7,50,32.5,50v0
		c0,0,0,0,0,0c0,0,0,0,0,0v0c-0.2,0-0.2,0-0.2-0.4c-0.1-0.5-0.2-6.2-0.2-7.8c0-1.5-0.2-4.7-0.4-5.3c-0.1-0.2-0.4-0.2-0.5,0
		c-0.2,0.5-0.2,3.4-0.3,4.8c-0.1,1.6,0,3.4-0.1,5.2c0,1.9-0.1,2.5-0.2,3c-0.1,0.4-0.7,0.3-0.7-0.1c0-0.4,0-1,0-1.9
		c0-2.2,0.2-6-0.3-9.6c-0.1-1.1-0.6-1.7-0.7-0.7c-0.2,2-0.1,6.4-0.7,12.8c-0.3,3.6,0.5,4.1,1.4,4.7c1.6,1.1,1.6,2.4,1.5,7.1
		c-0.1,4.7-1.4,20.9-1.6,23.5c-0.2,2.5,1.3,3.4,2.9,3.4v0c0,0,0,0,0,0c0,0,0,0,0,0v0c1.6,0,3.1-0.9,2.9-3.4
		c-0.2-2.6-1.5-18.8-1.6-23.5C33.8,57.1,33.8,55.8,35.4,54.7z"/>
	<path class="st4" d="M94.7,47.7c-4.7-6.5-12.4-10.8-21-10.8c-14.3,0-25.9,11.6-25.9,25.9c0,8.8,4.4,16.6,11.2,21.3
		c-9-10.8-12.6-25.9-0.9-37.5C70.5,34,85.2,39.4,94.7,47.7z"/>
	<g>
		<path class="st5" d="M32.3,49.7c-0.1-0.5-0.2-6.2-0.2-7.8c0-1.5-0.2-4.7-0.4-5.3c0-0.1-0.1-0.1-0.2-0.2v13.1c0,0,0.5,0.7,0.9,0.5
			C32.3,49.9,32.3,49.8,32.3,49.7z"/>
		<path class="st5" d="M34.4,49.5c-0.1-0.5-0.1-1.1-0.2-3c0-1.8,0-3.6-0.1-5.2c-0.1-1.4-0.1-4.3-0.3-4.8c0-0.1-0.2-0.1-0.3-0.1v12.9
			C33.6,49.2,34.1,49.9,34.4,49.5C34.5,49.5,34.5,49.5,34.4,49.5z"/>
		<path class="st5" d="M35.4,54.7c0.9-0.6,1.7-1.1,1.4-4.7c-0.6-6.3-0.5-10.7-0.7-12.8c0-0.4-0.1-0.5-0.2-0.5l-0.2,3.7L36,52.5
			l-2.8,3.3c0,0-0.1,7.5,1.2,27.2c0.3,4.3-2,4.5-3.5,3.7c-0.6-0.3-1-1-1.2-1.7c0,0.1,0,0.2,0,0.3c-0.2,2.5,1.3,3.4,2.9,3.4v0
			c0,0,0,0,0,0c0,0,0,0,0,0v0c1.6,0,3.1-0.9,2.9-3.4c-0.2-2.5-1.5-18.8-1.6-23.5C33.8,57.1,33.8,55.8,35.4,54.7z"/>
		<path class="st5" d="M29.4,40.8l-0.3,8.4c0,0,0.5,0.6,0.8,0.4c0,0-0.1-0.1-0.1-0.2c0-0.4,0-1,0-1.9c0-2.2,0.2-6-0.3-9.6
			c-0.1-0.8-0.4-1.3-0.5-1.2L29.4,40.8z"/>
	</g>
</g>
</svg>
