<?xml version="1.0" encoding="utf-8"?>
<!-- Generator: Adobe Illustrator 19.2.1, SVG Export Plug-In . SVG Version: 6.00 Build 0)  -->
<svg version="1.1" id="Layer_1" xmlns="http://www.w3.org/2000/svg" xmlns:xlink="http://www.w3.org/1999/xlink" x="0px" y="0px"
	 width="330px" height="330px" viewBox="0 0 330 330" style="enable-background:new 0 0 330 330;" xml:space="preserve">
<style type="text/css">
	.st0{fill-rule:evenodd;clip-rule:evenodd;fill:#F5FDFF;}
	.st1{fill:#2484F2;}
	.st2{fill-rule:evenodd;clip-rule:evenodd;fill:#FF571A;}
</style>
<path class="st0" d="M0,0h330v330H0V0z"/>
<path class="st1" d="M0,202.3v-21.2c8.2,7,16.4,12.3,27,13.4c13.1,1.4,24.8-1.4,28.1-7.5c-5.4,0-10.7,0.2-16,0
	c-11.2-0.6-22.2-2.2-32.1-7.9c-2.8-1.6-5.1-3.5-6.9-5.6v-29.6c5.8-9.3,14.2-16,23.6-21.6c7.1-4.2,14.7-7.5,22-11.2c0.3,0,0.7,0,1,0
	c11,5.4,20.3,12.9,26,23.8c7.6,14.6,4.6,14.5-7.7,18.8c-1.8,0.6-3.8,0.8-5.6,1.1c-2.7-5.7-5.2-11-7.7-16.4c-1.3-2.7-3.2-3.4-6.1-2.5
	c-14.3,4.5-25.6,12.9-34.3,25.6c7.5,5.1,15.6,7.2,23.9,8.5c8.9,1.4,17.8,2.1,26.8,2.9c6.8,0.6,11,4.8,10.9,11.7
	c-0.1,10.6-5.6,18.3-14,24c-15.6,10.7-38.7,9.9-53.9-1.5C3.2,205.6,1.5,204,0,202.3z M330,202.2v4.6c-0.1,0.4-0.3,0.8-0.5,1.3
	c-2.2,4.6-8,7.8-12.5,5.3c-4.3-2.4-7.8-6.4-11.2-10.1c-0.8-0.9-0.2-3.5,0.4-5.1c4.1-10,8.4-19.9,12.6-30c-1.5-0.3-3.5-0.8-5.4-1.2
	c-4,9.3-6.9,19.2-12.2,27.7c-6.1,9.9-9.5,19.5-8.2,31.4c0.6,5.7-1.7,12.2-4,17.8c-3.5,8.6-10.3,13.6-19.6,15.1
	c-0.9,0.1-1.8,0.6-2.8,0.9c-2.3,0-4.7,0-7,0c-3.4-1.2-6.9-2.1-10.1-3.7c-7.5-3.8-11.4-11.7-9.8-19.4c1-4.7,3.1-8.4,8.6-9.8
	c9.1-2.3,16.2-8.1,23.5-14.5c-3.7-3.5-7.9-3.6-12.1-2.9c-3.2,0.5-5.6,0.4-6.3-3.4c-0.7-4.1-4-8.5,1-12.2c4-3,8.2-5.7,11.8-9.1
	c8.2-7.7,8.6-13.7,1.7-24.5c-2.6,3.4-5.4,6.4-7.4,9.9c-4.2,7.3-7.9,15-12,22.4c-4.6,8.3-9.5,16.3-19,20.4c-5.1,2.2-9,1.4-12.4-2.7
	c-2.8-3.4-5.3-7.2-8.1-10.9c-4.5,5.4-9.2,10.8-17.3,10.5c-8.1-0.4-12.8-5.4-16.1-12.4c-2.7,3.5-4.8,7.1-7.7,9.7
	c-9.4,8.4-20.8,10.5-28.7-2.1c-1-1.5-1.3-4.1-0.7-5.9c1.7-5.4,3.8-10.6,6-15.8c2.2-5,4.7-9.9,7.1-15c-2.3-0.5-4.3-1-6.4-1.4
	c-3.6,6.9-6.6,14-10.7,20.4c-4.4,7-9.5,13.6-15,19.8c-2.5,2.9-6.3,5-9.9,6.5c-7.2,2.9-13.4,1-18.7-6.9c-0.9,8.8-1.9,16.1-2.2,23.4
	c-0.3,7.3-0.1,14.6,0.4,21.9c0.2,2.8-0.8,4.6-3.2,4.4c-5.4-0.3-10.8-1-16-2.3c-1.1-0.3-2.3-3.8-2.1-5.7c2.2-16.7,4.8-33.3,7-49.9
	c2-14.5,3.5-29,5.5-43.5c0.3-2.2,1.4-5.1,3.1-6.1c6.2-3.6,13-4.8,20.7-2.2c-2.4,5.7-4.8,11.2-7.1,16.7c14-13.4,29.9-6.1,30.5,16.2
	c2.9-5.4,6-10.7,8.7-16.3c0.6-1.2-0.3-3.2-0.6-4.8c-2.3-11.2,2.2-17.4,14.2-19.1c0,4.8,0,9.5,0,15c3.4-0.7,6.7-0.9,9.7-2
	c3-1,5.4-1.4,7.3,1.6c2.1,3.2,5.2,5.8,2.9,10.7c-5.3,10.9-10,22.1-14.9,33.1c-0.4,0.9-0.5,1.9-0.9,3.8c1.7-1.3,2.8-2.1,3.7-3.1
	c9.4-10.4,17.2-21.5,19.5-35.8c0.3-1.8,2.3-4.5,3.9-4.8c6.5-1.4,13.2-2.1,19.8-3.1c0.5,0.6,1.1,1.1,1.6,1.7
	c-2.6,12.7-5.3,25.4-7.9,38c8.5-0.8,16-14.5,16-26c-7.3-2.7-5.4-9.3-5.2-14.4c0.3-6.3,7.4-3,11.3-6.4c1.2-7.3,2.4-15.5,4.1-23.7
	c0.3-1.6,2.2-3.7,3.7-4.1c5.6-1.5,10.6,0.3,14.3,4.7c1,1.2,1.4,3.7,1.1,5.3c-1.2,5.6-2.9,11.2-4.6,17.2c4.3,0.6,7.9,1.4,11.7,1.7
	c3.7,0.3,4.6,2.4,3.7,5.4c-0.7,2.3-1.7,4.9-3.4,6.4c-2.7,2.3-6,4.9-9.3,5.4c-7.4,1.2-9.6,5.6-9.9,12.2c-0.3,6.4-1.1,12.8-1.7,19.2
	c0.5,0.3,1.1,0.7,1.6,1c2.6-2.6,5.9-4.7,7.6-7.7c6-10.5,11.4-21.4,17.2-32.1c2.6-4.8,5.6-9.4,8.5-14.1c1.7-2.7,3.9-3.1,6.8-1.9
	c10.8,4.6,18.1,12.7,22.7,23.3c0.7,1.6,0,4.2-0.8,6c-4.2,9.5-11.3,16.7-19.5,23.2c4.9,1.1,9.6,2.1,15.7,3.4
	c5.7-11.3,11.7-23.3,17.6-35.3c0.5-1,0-2.6-0.3-3.8c-2.9-11.4,1.6-18.1,14-20.1c0,4.8,0,9.5,0,15.1c3.7-0.7,7.2-0.8,10-2.1
	c1-0.5,1.9-0.7,2.6-0.8v29.2c-2.7,6.1-5.3,12.1-7.9,18.2c-0.2,0.4-0.2,0.9-0.4,2.1c1.8-1.1,3.3-1.9,4.8-2.8
	C328.2,199.5,329.4,200.7,330,202.2z M107.2,172.1c-12.8,5.8-16.4,16.8-5,27.8C109.9,192.9,112.5,179,107.2,172.1z M277.9,223.3
	c-8.2,4.3-15.2,8-22.6,11.9c5.4,3.5,11.1,5.5,17.5,5c1.3-0.1,3.4-1.7,3.6-2.9C277.2,233,277.4,228.5,277.9,223.3z"/>
<path class="st2" d="M189,150c-5.5-3.2-10.6-6.2-15.7-9c-6.3-3.4-10.5-11.7-8.5-18.7c1.3-4.5,5.6-6.3,9.9-6.1
	c6.6,0.3,12.5,2.1,19.3-2.1c4.8-3.1,10.9,1.9,12.7,8c2.1,7.2-0.8,14.7-7.1,19c-2.1,1.4-4,3-5.9,4.6C191.8,147.3,190,149.1,189,150z"
	/>
</svg>
