<svg id="Layer_1" data-name="Layer 1" xmlns="http://www.w3.org/2000/svg" viewBox="0 0 125.01 125.01"><defs><style>.cls-1{fill:#2891ed;}.cls-1,.cls-2,.cls-3,.cls-4,.cls-5,.cls-6,.cls-7,.cls-8{fill-rule:evenodd;}.cls-2{fill:#fec468;}.cls-3{fill:#ffb43b;}.cls-4{fill:#dcf3fa;}.cls-5{fill:#cde3ea;}.cls-6{fill:#ff7937;}.cls-7{fill:#abd8ff;}.cls-8{fill:#91ccff;}</style></defs><title>spritzr-date-icons-beach</title><g id="Beach"><path class="cls-1" d="M62.5,0A62.5,62.5,0,1,1,0,62.5,62.5,62.5,0,0,1,62.5,0Z" transform="translate(0)"/><path class="cls-2" d="M0.9,52a62.5,62.5,0,1,0,122.75-2.44c-9.13-1.18-28.64-3-62.14-3C31.19,46.5,10.61,49.9.9,52Z" transform="translate(0)"/><path class="cls-3" d="M79.25,80.51l-16.5-4L61.25,83,43,85.51,27.75,79.26,25.25,65,38,58.5l17.75,1.25,8.75,8L63.5,75l17.75,4.75Z" transform="translate(0)"/><path class="cls-4" d="M62.75,52.75L17.5,68,31,77.76l45-16.5Z" transform="translate(0)"/><path class="cls-4" d="M77.25,63.25L32,80,46,90,90.5,71.75Z" transform="translate(0)"/><path class="cls-4" d="M65,48s3.5-2.5,11.25-5C86,39.87,90.5,41.5,90.5,41.5s5.5,0.75,12,6.5a43,43,0,0,1,7.5,9.5l-7.5,2.25-7.75-.13L88,59.5s-4.39-1.35-8.8-2.58c-3.64-1-7.45-1.93-7.45-1.93l-4.08-3.93A27.5,27.5,0,0,1,65,48Z" transform="translate(0)"/><path class="cls-4" d="M79.5,80.51l9-36.25L90,44.5,81,81.26Z" transform="translate(0)"/><polygon class="cls-5" points="85.61 62.44 90.01 44.5 88.51 44.25 83.85 63 85.61 62.44"/><path class="cls-6" d="M86.74,59.12c0.34-2,1-5.72,1.51-8.87a68,68,0,0,1,2.18-8.77l-0.25-.07A70.62,70.62,0,0,0,81,47a74.18,74.18,0,0,0-9.11,8c0.71,0.17,4.08,1,7.31,1.89C82.17,57.75,85.12,58.63,86.74,59.12Z" transform="translate(0)"/><path class="cls-6" d="M98.75,50.25a31,31,0,0,1,3.86,9.47L110,57.5a43,43,0,0,0-7.5-9.5,27.18,27.18,0,0,0-11.33-6.36A37.61,37.61,0,0,1,98.75,50.25Z" transform="translate(0)"/><polygon class="cls-5" points="63.5 75 64.47 67.99 32 80 35.26 82.33 43 85.51 61.25 83.01 62.75 76.5 72.92 78.97 75.05 78.09 63.5 75"/><polygon class="cls-5" points="26.98 74.85 31 77.75 62.72 66.13 55.75 59.75 44.36 58.95 25.32 65.37 26.98 74.85"/><path class="cls-7" d="M15.75,104A62.49,62.49,0,0,0,116.1,94.66c-2.93.48-6.36,1-10.35,1.6-25.5,3.75-34.54-.37-62,2.5A159.19,159.19,0,0,0,15.75,104Z" transform="translate(0)"/><path class="cls-8" d="M18.9,107.27a62.47,62.47,0,0,0,94.61-8.68l-2.76.41c-25.5,3.75-34.54-.37-62,2.5A155.68,155.68,0,0,0,18.9,107.27Z" transform="translate(0)"/></g></svg>