<svg id="Layer_1" data-name="Layer 1" xmlns="http://www.w3.org/2000/svg" viewBox="0 0 125.01 125.01"><defs><style>.cls-1{fill:#42d3ff;}.cls-1,.cls-2,.cls-3,.cls-4,.cls-5,.cls-6,.cls-7{fill-rule:evenodd;}.cls-2{fill:#ffa280;}.cls-3{fill:#ff9670;}.cls-4{fill:#dcf3fa;}.cls-5{fill:#b6d6e1;}.cls-6{fill:#2e251b;}.cls-7{fill:#211b15;}</style></defs><title>spritzr-date-icons-zoo</title><g id="Zoo"><path class="cls-1" d="M62.5,0A62.5,62.5,0,1,1,0,62.5,62.5,62.5,0,0,1,62.5,0Z" transform="translate(0)"/><path class="cls-2" d="M89.25,24.75s0.5-6-7.25-9.25C70.9,10.84,49.6,12.12,41,32.25c-14,32.75,17.5,47,17.25,64-0.14,9.76-14.5,6.5-33.25-5.75A126.05,126.05,0,0,0,2,78.25,62.53,62.53,0,0,0,62.5,125c1.64,0,3.26-.08,4.87-0.21,0.3-.42.59-0.85,0.88-1.29C84.75,97.76,69,78,56.5,60.5,48,48.58,55.75,37.75,57.75,38s10,5.25,18,2.5,9.25-2,9.25-2a15.88,15.88,0,0,1,6.5,12.75c0,8.5-5,15.75-5,15.75s14.11,0.52,16.75-13.5C107.25,32.25,89.25,24.75,89.25,24.75Z" transform="translate(0)"/><path class="cls-3" d="M80.65,33.5C78,34.56,76.75,37.25,69,37.25c-6,0-11.75-4.5-11.75-4.5s-15,11-4.5,27.5c12.25,19.25,20.25,32.25,12,49-2.89,5.87-10.42,10.36-18.41,13.63A62.56,62.56,0,0,0,62.5,125c1.64,0,3.26-.08,4.87-0.21,0.3-.42.59-0.85,0.88-1.29C84.75,97.76,69,78,56.5,60.5,48,48.58,55.75,37.75,57.75,38s10,5.25,18,2.5,9.25-2,9.25-2l0.24,0.17L87,33A10.84,10.84,0,0,0,80.65,33.5Z" transform="translate(0)"/><path class="cls-4" d="M89.25,24.75s0-.07,0-0.18c-1.39.18-5.37,0.52-7-1.32a2.63,2.63,0,0,0-4.5,2.5c0.93,3.57,4.5,3.5,6.25,4.5s0.43,4.27.68,8.18a0.91,0.91,0,0,1,.32.07,15.88,15.88,0,0,1,6.5,12.75c0,8.5-5,15.75-5,15.75s14.11,0.52,16.75-13.5C107.25,32.25,89.25,24.75,89.25,24.75Z" transform="translate(0)"/><path class="cls-5" d="M84.87,32.52c0,1.53-.34,3.62-0.2,5.9a0.91,0.91,0,0,1,.32.07,15.88,15.88,0,0,1,6.5,12.75c0,8.5-5,15.75-5,15.75h0.42C91,64.56,97.32,59.44,98,51,99.25,35.53,86.24,32.77,84.87,32.52Z" transform="translate(0)"/><path class="cls-6" d="M102,38L97.75,50.25,91.15,48a15.72,15.72,0,0,1,.35,3.28c0,8.5-5,15.75-5,15.75s14.11,0.52,16.75-13.5A27,27,0,0,0,102,38Z" transform="translate(0)"/><path class="cls-7" d="M86.92,67h0C91,64.56,97.32,59.44,98,51c0-.58.07-1.14,0.08-1.69l-0.33.94L91.15,48c0.1,0.48.18,1,.24,1.49l0,0.11a16.07,16.07,0,0,1,.09,1.68c0,8.5-5,15.75-5,15.75h0.42Z" transform="translate(0)"/><path class="cls-6" d="M82,25.85a0.72,0.72,0,0,1-.31-1.32A1.92,1.92,0,0,0,80.5,24c-1.51-.17-1.75,2.5.25,3a1.09,1.09,0,0,0,1.47-1.14A0.63,0.63,0,0,1,82,25.85Z" transform="translate(0)"/></g></svg>