<svg width="7" height="7" viewBox="0 0 7 7" fill="none" xmlns="http://www.w3.org/2000/svg">
<path d="M2.616 6.072L3.012 3.732L1.476 5.628L0.48 4.728L2.568 3.324L0 3.684V2.388L2.568 2.748L0.48 1.344L1.476 0.432L3.012 2.34L2.616 0H4.032L3.648 2.34L5.184 0.432L6.18 1.344L4.08 2.748L6.66 2.388V3.684L4.08 3.324L6.18 4.728L5.184 5.628L3.648 3.732L4.032 6.072H2.616Z" fill="white"/>
<path d="M2.616 6.072L3.012 3.732L1.476 5.628L0.48 4.728L2.568 3.324L0 3.684V2.388L2.568 2.748L0.48 1.344L1.476 0.432L3.012 2.34L2.616 0H4.032L3.648 2.34L5.184 0.432L6.18 1.344L4.08 2.748L6.66 2.388V3.684L4.08 3.324L6.18 4.728L5.184 5.628L3.648 3.732L4.032 6.072H2.616Z" fill="url(#paint0_linear_372_508)"/>
<defs>
<linearGradient id="paint0_linear_372_508" x1="-0.360001" y1="3.4" x2="7.64" y2="3.4" gradientUnits="userSpaceOnUse">
<stop stop-color="#FEDCE1"/>
<stop offset="1" stop-color="#D6B6F0"/>
</linearGradient>
</defs>
</svg>
