<svg width="20" height="20" viewBox="0 0 20 20" fill="none" xmlns="http://www.w3.org/2000/svg">
<g clip-path="url(#clip0_372_840)">
<path d="M4.9432 0H15.057C15.132 0.0606082 15.4939 0.0380244 15.6183 0.0460199C15.9011 0.0641865 16.1842 0.0864383 16.4655 0.124675C18.1195 0.385449 19.5592 1.77453 19.8582 3.42547C19.9525 3.9467 19.9746 4.36203 19.9703 4.88334L20 4.90064V15.0704C19.9568 15.2313 19.9801 15.4662 19.9658 15.6372C19.948 15.8496 19.9326 16.0625 19.9068 16.2744C19.7557 17.5548 18.9992 18.6852 17.8984 19.3477C17.3594 19.6721 16.852 19.8369 16.2254 19.9055C16.0707 19.9223 15.7238 19.9477 15.5959 20H4.31629C4.12602 19.9227 3.81033 19.9088 3.59574 19.8795C3.16053 19.8225 2.73898 19.6883 2.3509 19.4833C1.11744 18.8312 0.244527 17.6338 0.0943223 16.231C0.0723654 16.026 0.036468 15.1617 0 15.0558V4.94047C0.0617397 4.85926 0.0285813 4.54539 0.02929 4.43307C0.0407484 2.61736 1.03513 1.014 2.7433 0.334215C3.44604 0.0545609 4.2043 0.0752279 4.93465 0.00611381C4.9375 0.00407586 4.94035 0.00203793 4.9432 0Z" fill="#8553FF"/>
<path d="M9.90673 3.81719C10.2253 3.81428 10.5436 3.83287 10.8597 3.87281C12.4771 4.07838 13.9463 4.91881 14.9434 6.20879C16.9935 8.86742 16.6057 13.0942 13.8929 15.1578C12.7557 16.0228 11.5912 16.3082 10.1836 16.1262C9.52097 16.0459 8.98173 15.7917 8.40907 15.4791C8.03794 15.5269 7.6478 15.5598 7.28003 15.4826C4.98589 15.0014 3.863 12.6087 3.76985 10.4827C3.6077 6.78116 6.21745 3.96264 9.90673 3.81719Z" fill="#FEFEFE"/>
<path d="M9.81821 4.57902C10.4728 4.53622 11.315 4.68786 11.9264 4.90974C13.2612 5.39142 14.3488 6.3856 14.9481 7.67195C15.5937 9.09581 15.6584 10.7154 15.1284 12.1862C14.2204 14.6506 11.9086 16.0657 9.34745 15.1233C9.88841 14.6593 10.0341 14.5283 10.4224 13.9234C10.465 13.9323 10.5082 13.9382 10.5517 13.941C12.5717 14.0817 13.7457 12.3078 13.8616 10.4712C13.9336 9.27548 13.5296 8.0998 12.7378 7.20085C12.7214 7.1831 12.7049 7.16542 12.6882 7.14786C11.994 6.41521 11.1284 6.04607 10.1225 6.0204C9.07802 5.99374 8.10489 6.32931 7.34132 7.05517C6.44193 7.91009 6.06415 9.12947 6.03507 10.3486C6.00364 11.6659 6.29259 13.0429 7.04062 14.1462C7.20183 14.3839 7.39148 14.5835 7.58857 14.7896C7.18937 14.7002 6.87513 14.6092 6.52292 14.3876C5.16113 13.5308 4.59861 11.9331 4.52075 10.4009C4.43626 8.91741 4.94706 7.46155 5.93993 6.35611C6.96784 5.22204 8.30435 4.65261 9.81821 4.57902Z" fill="#8553FF"/>
<path d="M9.79578 6.78543C10.5041 6.68264 11.4374 7.01195 11.9663 7.50029C13.3324 8.7617 13.5108 11.1031 12.2857 12.5211C11.8749 12.9966 11.4016 13.1511 10.7891 13.1795C11.2165 12.2043 11.3328 11.4718 11.3666 10.4009C11.4029 9.25357 11.1536 7.85939 9.63097 8.17398C9.23535 8.25572 8.95496 8.54914 8.75056 8.88975C8.32558 9.64008 8.3324 11.0034 8.50285 11.8429C8.66183 12.626 9.03166 13.2329 9.6949 13.6771C9.32961 14.1469 9.08797 14.4057 8.5431 14.6547C7.40668 13.6779 6.96961 12.632 6.81939 11.149C6.60705 9.05295 7.46142 6.97443 9.79578 6.78543Z" fill="#8553FF"/>
<path d="M9.85382 8.809C11.1492 8.73164 10.6476 11.912 10.3003 12.6073C10.2204 12.7672 10.1176 12.8653 9.94749 12.9115C9.89651 12.907 9.84659 12.8944 9.79964 12.874C8.96407 12.5164 8.97583 9.89756 9.40101 9.20619C9.53726 8.98465 9.62001 8.90166 9.85382 8.809Z" fill="#8553FF"/>
</g>
<defs>
<clipPath id="clip0_372_840">
<rect width="20" height="20" fill="white"/>
</clipPath>
</defs>
</svg>
