<svg width="24" height="16" viewBox="0 0 24 16" fill="none" xmlns="http://www.w3.org/2000/svg">
<path d="M6.89646 0C6.88874 0 6.88107 2.72951e-05 6.87336 6.71669e-05L6.8418 2.60693C6.84902 2.60685 6.85623 2.60679 6.86346 2.60679H6.86348C8.57934 2.60679 9.91025 3.95967 12.803 8.83227L12.9794 9.12891L12.9909 9.14832L14.6102 6.71865L14.599 6.69988C14.2179 6.08008 13.8518 5.50981 13.5007 4.98908C13.0935 4.38574 12.704 3.84674 12.3261 3.36552C10.4125 0.928951 8.81166 0 6.89646 0Z" fill="url(#paint0_linear_372_836)"/>
<path d="M6.87305 6.71669e-05C4.94855 0.00996814 3.24716 1.25442 2.0186 3.1587C2.01501 3.16427 2.01141 3.16985 2.00781 3.17544L4.26296 4.40289C4.26663 4.39734 4.27031 4.39178 4.27398 4.38626C4.99138 3.30611 5.88416 2.61717 6.84149 2.60692C6.84871 2.60684 6.85592 2.60678 6.86316 2.60678L6.89615 0C6.88843 0 6.88076 2.72951e-05 6.87305 6.71669e-05Z" fill="url(#paint1_linear_372_836)"/>
<path d="M2.01888 3.15869C2.01528 3.16426 2.01169 3.16985 2.00809 3.17544C1.20079 4.43213 0.598981 5.97424 0.273743 7.63789C0.272336 7.64509 0.270932 7.6523 0.269531 7.65951L2.8031 8.25731C2.80442 8.25009 2.80575 8.24286 2.80709 8.23563C3.0779 6.77356 3.59348 5.41754 4.26323 4.40288C4.2669 4.39734 4.27057 4.39178 4.27424 4.38625L2.01888 3.15869Z" fill="url(#paint2_linear_372_836)"/>
<path d="M2.80705 8.23544L0.273697 7.6377C0.272289 7.64489 0.270885 7.6521 0.269485 7.65932C0.0921372 8.57425 0.00191135 9.50394 1.83679e-05 10.4359C3.48246e-06 10.4434 -2.3436e-06 10.451 8.46145e-07 10.4585L2.59827 10.6909C2.59807 10.6834 2.59785 10.6759 2.59767 10.6683C2.5964 10.6143 2.59575 10.5595 2.59573 10.504C2.59702 9.7503 2.66641 8.99829 2.80305 8.25711C2.80438 8.24989 2.80571 8.24267 2.80705 8.23544Z" fill="url(#paint3_linear_372_836)"/>
<path d="M2.6773 11.5017C2.63069 11.2339 2.60428 10.9629 2.59827 10.6911C2.59807 10.6835 2.59785 10.676 2.59767 10.6685L1.83679e-05 10.436C3.48246e-06 10.4436 -2.3436e-06 10.4511 8.46145e-07 10.4586V10.4601C8.46145e-07 11.0401 0.04837 11.5832 0.142377 12.0849C0.143735 12.0921 0.145072 12.0993 0.146451 12.1065L2.68123 11.5234C2.67989 11.5162 2.6786 11.509 2.6773 11.5017Z" fill="url(#paint4_linear_372_836)"/>
<path d="M3.26947 12.8467C2.98673 12.5381 2.78664 12.093 2.68144 11.5237C2.6801 11.5165 2.67881 11.5092 2.67751 11.502L0.142578 12.0851C0.143937 12.0924 0.145273 12.0995 0.146653 12.1067C0.338253 13.1127 0.714014 13.9511 1.25213 14.5853C1.25692 14.591 1.26172 14.5966 1.26654 14.6022L3.28457 12.863C3.27952 12.8576 3.27446 12.8522 3.26947 12.8467Z" fill="url(#paint5_linear_372_836)"/>
<path d="M10.7792 5.63574C9.25167 7.97877 8.32629 9.44835 8.32629 9.44835C6.29146 12.6381 5.58751 13.353 4.45461 13.353C3.98188 13.353 3.58695 13.1847 3.28439 12.8629C3.27935 12.8576 3.27428 12.8521 3.26929 12.8467L1.25195 14.5853C1.25674 14.5909 1.26154 14.5965 1.26636 14.6022C2.00938 15.4683 3.05816 15.9488 4.35562 15.9488C6.31859 15.9488 7.73037 15.0234 10.2401 10.6362C10.2401 10.6362 11.2864 8.7887 12.0061 7.51604C11.5603 6.79622 11.1545 6.17305 10.7792 5.63574Z" fill="#0082FB"/>
<path d="M13.5014 1.9375C13.4962 1.94297 13.491 1.94855 13.4858 1.95403C13.0847 2.38143 12.6997 2.85871 12.3252 3.3651C12.7031 3.84633 13.0933 4.38637 13.5005 4.98971C13.9805 4.24894 14.4284 3.64897 14.8675 3.18913C14.8728 3.18368 14.8779 3.17838 14.8831 3.17297L13.5014 1.9375Z" fill="url(#paint6_linear_372_836)"/>
<path d="M20.918 1.70774C19.8527 0.631498 18.5824 0 17.2245 0C15.7926 0 14.5882 0.784659 13.5019 1.93742C13.4967 1.94289 13.4915 1.94847 13.4863 1.95396L14.868 3.18906C14.8732 3.1836 14.8783 3.1783 14.8836 3.17289C15.5992 2.4285 16.2918 2.05683 17.0595 2.05683H17.0595C17.8859 2.05683 18.6595 2.44583 19.3295 3.1278C19.3347 3.13315 19.34 3.13844 19.3452 3.14383L20.9338 1.72377C20.9285 1.7184 20.9232 1.71309 20.918 1.70774Z" fill="#0082FB"/>
<path d="M23.9973 10.0933C23.9376 6.63767 22.7284 3.54839 20.9334 1.72403C20.9282 1.71866 20.9229 1.71336 20.9176 1.70801L19.3291 3.12806C19.3344 3.13341 19.3396 3.13871 19.3448 3.14409C20.6951 4.53113 21.6213 7.11106 21.7055 10.0925C21.7057 10.1 21.7059 10.1075 21.7062 10.1151L23.9977 10.1158C23.9976 10.1083 23.9974 10.1008 23.9973 10.0933Z" fill="url(#paint7_linear_372_836)"/>
<path d="M23.9984 10.1155C23.9982 10.108 23.9981 10.1005 23.998 10.093L21.7062 10.0923C21.7064 10.0998 21.7066 10.1073 21.7069 10.1148C21.7106 10.2547 21.7125 10.3955 21.7124 10.5371C21.7124 11.35 21.591 12.0072 21.3441 12.4816C21.3405 12.4886 21.3367 12.4957 21.333 12.5026L23.0417 14.2797C23.0459 14.2733 23.0501 14.2668 23.0543 14.2604C23.6746 13.3032 24.0003 11.9736 24.0003 10.3612C24.0003 10.2791 23.9996 10.1972 23.9984 10.1155Z" fill="url(#paint8_linear_372_836)"/>
<path d="M21.3436 12.4819C21.3399 12.489 21.3362 12.496 21.3325 12.503C21.1187 12.9029 20.8138 13.1696 20.415 13.2862L21.194 15.7411C21.2971 15.7061 21.3976 15.6667 21.4953 15.6231C21.5244 15.6101 21.5534 15.5967 21.5821 15.583C21.5986 15.5751 21.6151 15.567 21.6315 15.5589C22.1465 15.3022 22.5818 14.9235 22.9338 14.4357C22.9553 14.4059 22.9766 14.3759 22.9975 14.3453C23.0122 14.3238 23.0267 14.302 23.0411 14.2801C23.0454 14.2736 23.0495 14.2672 23.0537 14.2607L21.3436 12.4819Z" fill="url(#paint9_linear_372_836)"/>
<path d="M19.919 13.353C19.6578 13.353 19.4274 13.3141 19.2019 13.2134L18.4043 15.7267C18.8526 15.8798 19.3308 15.9488 19.864 15.9488C20.3554 15.9488 20.8064 15.8753 21.2153 15.7336L20.4365 13.2795C20.2687 13.3298 20.0942 13.3546 19.919 13.353Z" fill="url(#paint10_linear_372_836)"/>
<path d="M18.3236 12.4932C18.3187 12.4875 18.3138 12.4818 18.3088 12.4761L16.4736 14.3847C16.4788 14.3902 16.4839 14.3957 16.489 14.4011C17.1267 15.0807 17.7356 15.5023 18.4262 15.7336L19.2231 13.2222C18.9321 13.0972 18.6507 12.8706 18.3236 12.4932Z" fill="url(#paint11_linear_372_836)"/>
<path d="M18.3088 12.476C17.7584 11.8359 17.0774 10.77 16.0062 9.04653L14.6104 6.71847L14.5992 6.69971L12.9795 9.12872L12.991 9.14814L13.9801 10.812C14.9388 12.4164 15.7199 13.577 16.4737 14.3847C16.4788 14.3902 16.4839 14.3956 16.489 14.4011L18.3236 12.4932C18.3187 12.4875 18.3138 12.4818 18.3088 12.476Z" fill="url(#paint12_linear_372_836)"/>
<defs>
<linearGradient id="paint0_linear_372_836" x1="13.5339" y1="8.16025" x2="8.15763" y2="1.11551" gradientUnits="userSpaceOnUse">
<stop offset="0.0006" stop-color="#0867DF"/>
<stop offset="0.4539" stop-color="#0668E1"/>
<stop offset="0.8591" stop-color="#0064E0"/>
</linearGradient>
<linearGradient id="paint1_linear_372_836" x1="3.0671" y1="3.59673" x2="6.75284" y2="0.798542" gradientUnits="userSpaceOnUse">
<stop offset="0.1323" stop-color="#0064DF"/>
<stop offset="0.9988" stop-color="#0064E0"/>
</linearGradient>
<linearGradient id="paint2_linear_372_836" x1="1.50514" y1="7.70296" x2="2.98363" y2="3.98115" gradientUnits="userSpaceOnUse">
<stop offset="0.0147" stop-color="#0072EC"/>
<stop offset="0.6881" stop-color="#0064DF"/>
</linearGradient>
<linearGradient id="paint3_linear_372_836" x1="1.30431" y1="10.3914" x2="1.47539" y2="8.11842" gradientUnits="userSpaceOnUse">
<stop offset="0.0731" stop-color="#007CF6"/>
<stop offset="0.9943" stop-color="#0072EC"/>
</linearGradient>
<linearGradient id="paint4_linear_372_836" x1="1.39839" y1="11.6262" x2="1.27602" y2="10.7156" gradientUnits="userSpaceOnUse">
<stop offset="0.0731" stop-color="#007FF9"/>
<stop offset="1" stop-color="#007CF6"/>
</linearGradient>
<linearGradient id="paint5_linear_372_836" x1="1.32677" y1="11.8657" x2="2.08938" y2="13.4832" gradientUnits="userSpaceOnUse">
<stop offset="0.0731" stop-color="#007FF9"/>
<stop offset="1" stop-color="#0082FB"/>
</linearGradient>
<linearGradient id="paint6_linear_372_836" x1="13.0473" y1="4.03922" x2="14.0555" y2="2.64483" gradientUnits="userSpaceOnUse">
<stop offset="0.2799" stop-color="#007FF8"/>
<stop offset="0.9141" stop-color="#0082FB"/>
</linearGradient>
<linearGradient id="paint7_linear_372_836" x1="20.7128" y1="2.23221" x2="22.8219" y2="9.99089" gradientUnits="userSpaceOnUse">
<stop stop-color="#0082FB"/>
<stop offset="0.9995" stop-color="#0081FA"/>
</linearGradient>
<linearGradient id="paint8_linear_372_836" x1="23.3318" y1="10.2874" x2="21.997" y2="12.9848" gradientUnits="userSpaceOnUse">
<stop offset="0.0619" stop-color="#0081FA"/>
<stop offset="1" stop-color="#0080F9"/>
</linearGradient>
<linearGradient id="paint9_linear_372_836" x1="20.9356" y1="14.4153" x2="22.1833" y2="13.5654" gradientUnits="userSpaceOnUse">
<stop stop-color="#027AF3"/>
<stop offset="1" stop-color="#0080F9"/>
</linearGradient>
<linearGradient id="paint10_linear_372_836" x1="18.9786" y1="14.5811" x2="20.7125" y2="14.5811" gradientUnits="userSpaceOnUse">
<stop stop-color="#0377EF"/>
<stop offset="0.9994" stop-color="#0279F1"/>
</linearGradient>
<linearGradient id="paint11_linear_372_836" x1="17.4717" y1="13.6259" x2="18.7183" y2="14.3593" gradientUnits="userSpaceOnUse">
<stop offset="0.0019" stop-color="#0471E9"/>
<stop offset="1" stop-color="#0377EF"/>
</linearGradient>
<linearGradient id="paint12_linear_372_836" x1="13.6693" y1="8.21831" x2="17.6624" y2="13.2388" gradientUnits="userSpaceOnUse">
<stop offset="0.2765" stop-color="#0867DF"/>
<stop offset="1" stop-color="#0471E9"/>
</linearGradient>
</defs>
</svg>
