<svg width="24" height="17" viewBox="0 0 24 17" fill="none" xmlns="http://www.w3.org/2000/svg">
<g clip-path="url(#clip0_372_821)">
<path d="M13.0977 0.826912C13.4249 0.813044 13.7958 0.82206 14.1263 0.82214L15.9382 0.822338C17.4458 0.82243 18.9805 0.806876 20.4853 0.82386C20.4367 1.72663 20.4834 2.68092 20.4676 3.58714C20.4633 3.82983 20.4864 4.49513 20.4473 4.69121C20.5579 4.58523 20.8712 4.1774 20.9783 4.04273C21.0458 3.98508 21.303 3.66918 21.3705 3.58075C21.6435 3.22375 21.8165 3.07572 22.1739 2.81754C22.6508 2.58127 23.1152 2.47128 23.4137 3.06149C23.5523 3.3354 23.5767 3.76733 23.486 4.06033C23.3347 4.47791 22.8911 4.72699 22.5112 4.90082C22.4115 4.94639 22.243 5.02373 22.1613 5.09079C21.9544 5.16653 21.5076 5.91397 21.3523 6.12668C21.2584 6.25525 21.0317 6.57651 20.9664 6.71233C20.9607 6.72463 20.9553 6.73717 20.9505 6.7499C20.8543 6.85811 20.5085 7.45393 20.4493 7.58418C20.4766 7.69705 20.4676 8.05577 20.4676 8.18747L20.4665 9.22586L20.4666 12.1229C20.4669 12.7602 20.4584 13.4184 20.482 14.0539C20.1752 14.0743 19.7382 14.061 19.4232 14.0603L17.5709 14.0588L16.3802 14.0611C16.261 14.0614 15.8931 14.0685 15.7852 14.0522C15.7701 14.403 15.7864 14.7472 15.5079 15.0061C15.3152 15.1853 14.9773 15.2746 14.7195 15.2646C14.5193 15.2554 14.3309 15.1668 14.1962 15.0183C13.9718 14.7723 13.9034 14.3631 13.9151 14.0419C13.6292 14.0923 13.1938 14.0309 12.8777 14.0815C12.8539 13.3379 12.8775 12.4761 12.8763 11.7211L12.8736 10.89C12.8731 10.7411 12.8639 10.4669 12.8939 10.3301C12.6999 10.5297 12.1385 10.9859 11.8895 11.1911C11.4777 11.5305 10.9778 11.9859 10.5616 12.2973C10.4781 12.205 9.97816 11.7976 9.85766 11.6996C9.32765 11.2684 8.79238 10.7739 8.26229 10.3533C8.29433 10.6123 8.27703 11.3307 8.27716 11.626L8.28428 14.0644C6.66219 14.0434 5.0086 14.0591 3.38477 14.0587L1.69916 14.0587C1.42497 14.0588 0.978699 14.0482 0.714823 14.0731C0.686108 13.6451 0.70846 13.0112 0.70883 12.5668L0.709128 9.7163L0.701927 0.822285L5.4279 0.822379C6.28204 0.822314 7.179 0.807365 8.02856 0.825624C8.28858 0.954234 9.17175 1.99353 9.44322 2.26257C9.75429 2.57088 10.3065 3.12391 10.5693 3.4652C10.9978 2.95704 11.5499 2.40791 12.0109 1.92846C12.2497 1.6801 12.8302 0.978815 13.0977 0.826912Z" fill="#FFCA0C"/>
<path d="M15.0465 4.92607C15.4085 4.711 15.8001 4.49271 16.146 4.25324C16.5072 4.00327 16.7154 3.56815 17.2352 3.63357C17.7797 3.70205 18.1759 4.2494 17.6589 4.65254C17.3526 4.89818 17.0564 5.07051 16.7247 5.26525L15.5361 5.96118C15.5429 6.57495 15.5406 7.18658 15.5665 7.8004C15.5911 8.38213 15.671 8.98767 15.6804 9.56767C15.6926 10.3179 15.6667 11.0766 15.68 11.8277C15.69 12.3914 15.7225 12.9525 15.764 13.5146C15.7773 13.6947 15.7735 13.8747 15.786 14.0524C15.7709 14.4032 15.7872 14.7474 15.5087 15.0063C15.316 15.1855 14.9781 15.2748 14.7203 15.2648C14.5201 15.2556 14.3317 15.167 14.197 15.0185C13.9725 14.7725 13.9042 14.3633 13.9158 14.0421C13.9958 12.8253 13.973 11.6148 14.0355 10.3984C14.0788 9.55516 14.1084 8.70929 14.1082 7.86502C14.1084 7.69599 14.0677 7.33517 13.9551 7.20522C13.9037 7.14663 13.8308 7.11125 13.7529 7.10708C13.4297 7.0918 12.5526 7.82865 12.2385 8.03927C11.754 8.36422 11.0989 9.04495 10.5048 8.46879C10.2746 8.22177 10.1685 7.82367 10.4572 7.57868C10.7481 7.33181 11.143 7.28887 11.4741 7.12039C11.9924 6.85659 12.4865 6.54844 12.9881 6.25468C13.1772 6.14395 13.5458 5.94409 13.6823 5.79464C13.7806 5.44664 13.6327 5.10486 14.0194 4.88954C14.3114 4.72701 14.7591 4.79387 15.0465 4.92607Z" fill="#EE2232"/>
<path d="M22.1745 2.81747C22.6515 2.5812 23.1158 2.47122 23.4144 3.06143C23.553 3.33533 23.5774 3.76726 23.4867 4.06026C23.3354 4.47784 22.8918 4.72692 22.5119 4.90075C22.4122 4.94632 22.2437 5.02366 22.162 5.09073C21.9551 5.16646 21.5083 5.91391 21.353 6.12661C21.2591 6.25518 21.0324 6.57645 20.9671 6.71226C20.9613 6.72456 20.956 6.7371 20.9512 6.74983C20.855 6.85804 20.5092 7.45387 20.45 7.58411C20.2347 7.78177 19.3643 9.95818 19.2275 10.3239C19.1382 10.5618 19.058 10.8029 18.9869 11.0469C18.8853 11.4051 18.8536 11.7749 18.7745 12.1383C18.7204 12.386 18.6098 12.6093 18.3249 12.6349C17.1781 12.7379 16.9839 11.4672 16.7655 10.6269C16.561 9.86722 16.3793 9.10164 16.2206 8.33114C16.0863 7.7003 15.7703 6.88542 16.1848 6.29583C16.4286 5.94899 17.2101 5.88722 17.3679 6.34934C17.4858 6.69464 17.5193 7.09338 17.5592 7.45802C17.6012 7.82636 17.6412 8.19495 17.6791 8.56373C17.698 8.7332 17.7718 9.19144 18.0047 9.16166C18.0815 9.08978 18.2064 8.7033 18.2526 8.58358C18.3729 8.26382 18.5054 7.94879 18.6497 7.63914C19.0353 6.8155 19.5203 6.07702 20.0042 5.30905C20.125 5.11717 20.333 4.88709 20.4405 4.70406L20.448 4.69114C20.5586 4.58516 20.8719 4.17733 20.9789 4.04266C21.0465 3.98501 21.3036 3.66911 21.3712 3.58069C21.6442 3.22368 21.8172 3.07565 22.1745 2.81747Z" fill="#EE2232"/>
<path d="M20.9507 6.74993C20.9554 6.7372 20.9608 6.72466 20.9665 6.71235C21.0319 6.57654 21.2586 6.25527 21.3525 6.12671C21.5078 5.914 21.9546 5.16656 22.1615 5.09082C22.1913 5.26805 22.182 5.69287 22.1818 5.88397L22.181 7.2223L22.1807 11.7904L22.181 13.2471C22.1812 13.4965 22.1715 13.8291 22.1899 14.072C21.8831 14.0446 21.2654 14.0463 20.9448 14.0649L20.9447 8.87707L20.942 7.5065C20.9407 7.33846 20.9261 6.89062 20.9507 6.74993Z" fill="#1FABC7"/>
<path d="M20.9424 0.796875C21.1908 0.937388 21.4285 1.07307 21.6708 1.2247C21.8442 1.33334 22.0031 1.4091 22.1692 1.53691C22.1905 1.68168 22.1908 2.67345 22.1746 2.81754C21.8172 3.07572 21.6443 3.22375 21.3713 3.58075C21.3037 3.66918 21.0465 3.98508 20.979 4.04273C20.9295 3.89612 20.9467 2.93897 20.9468 2.71881C20.9486 2.07816 20.9471 1.43751 20.9424 0.796875Z" fill="#1FABC7"/>
<path d="M8.76116 11.4351C8.83178 11.4514 9.66247 12.1745 9.7667 12.2674C9.77022 12.3309 9.77322 12.3945 9.77567 12.458C9.792 12.8732 9.77176 13.5895 9.7892 14.0385C9.78002 14.0484 9.77211 14.0569 9.76546 14.0641C9.42826 14.0549 9.09736 14.0486 8.7604 14.0671L8.76008 12.3697C8.7591 12.1071 8.74163 11.679 8.76116 11.4351Z" fill="#1FABC7"/>
<path d="M8.79688 0.851565C8.87498 0.850703 9.36208 1.06533 9.44286 1.10857C9.9251 1.36666 10.8749 1.63368 11.248 1.98808C11.1606 2.13292 11.0403 2.25009 10.925 2.37407C10.8272 2.487 10.6835 2.63563 10.5717 2.7299C10.4324 2.56623 10.2042 2.34429 10.0514 2.18705C9.76183 1.89113 9.47619 1.59138 9.19459 1.28785C9.08242 1.16752 8.89161 0.974991 8.79688 0.851565Z" fill="#1FABC7"/>
<path d="M12.3407 11.4438L12.3774 11.4577C12.4158 11.526 12.3979 11.7551 12.4064 11.8395C12.4691 12.4679 11.8577 12.3337 11.4126 12.3331L11.386 12.3268L11.373 12.2971C11.395 12.2212 12.2148 11.5456 12.3407 11.4438Z" fill="#1FABC7"/>
</g>
<defs>
<clipPath id="clip0_372_821">
<rect width="23.9724" height="16.2353" fill="white"/>
</clipPath>
</defs>
</svg>
