<svg width="20" height="20" viewBox="0 0 20 20" fill="none" xmlns="http://www.w3.org/2000/svg">
<g clip-path="url(#clip0_372_831)">
<path d="M4.2633 0H15.7418C15.746 0.00284066 17.167 0.11689 17.5056 0.256156C18.6398 0.722527 19.4411 1.48786 19.8072 2.68189C19.9494 3.11289 19.918 4.01139 20 4.22939V15.7589C19.985 15.8046 19.9305 16.627 19.9188 16.725C19.6875 18.6587 18.0457 19.9551 16.1431 19.9715C16.0932 19.9719 15.8494 19.9813 15.8271 20H4.24492C4.19754 19.976 3.43926 19.9184 3.33984 19.9119C1.78708 19.8123 0.406996 18.5141 0.126468 16.9996C0.0496373 16.5847 0.0413029 16.1855 0 15.7725V6.80701V4.28338C0.0108431 4.26715 0.0280463 4.2376 0.0289016 4.21826C0.0439799 3.87742 0.0459584 3.2984 0.136542 2.97061C0.182696 2.76119 0.238853 2.52871 0.318824 2.3307C0.825586 1.09763 1.96174 0.236824 3.28594 0.0826654C3.42506 0.066016 4.2152 0.0359979 4.2633 0Z" fill="#FA5A1C"/>
<path d="M6.17676 3.43742L6.18441 3.43471C6.36148 3.37066 6.63969 3.18689 6.80869 3.08221C7.13277 2.88146 7.45969 2.67979 7.81621 2.5401C8.30918 2.34699 8.83063 2.21184 9.34547 2.105C10.8272 1.79752 12.3963 1.8058 13.8574 2.2175C14.1737 2.30664 14.671 2.44436 14.9655 2.59109C15.7766 2.9952 16.6672 3.59867 16.9837 4.48656C17.2082 5.11633 17.1426 5.77365 16.8658 6.36859C16.5631 7.01941 15.9559 7.52736 15.2746 7.75678C13.8784 8.22691 12.1172 7.99076 10.7338 7.55693C10.2529 7.40611 9.80318 7.16996 9.33504 7.01838C9.46897 7.55863 9.87947 7.92992 10.3697 8.19828C12.5826 9.40961 15.9588 9.70527 16.8151 12.5245C17.0833 13.4073 16.8555 14.7682 16.3575 15.5287C14.5413 18.4215 10.1439 18.6915 7.11344 18.152C6.35375 18.0168 5.50117 17.6827 4.82574 17.3293C2.3749 16.0454 2.51387 12.6156 5.31527 11.9196C6.28709 11.6781 7.20603 12.0127 8.06461 12.4831C8.42309 12.6647 8.37771 12.9033 8.28008 13.2731C8.06148 14.1322 8.0185 14.8807 8.74 15.4599C9.89488 16.3872 11.9593 15.3672 11.67 13.9021C11.3761 12.4139 8.42225 11.6365 7.24561 10.9013C6.69041 10.5544 6.07053 10.3432 5.55143 9.89984C4.1875 8.91707 3.77879 6.89562 4.55955 5.40854C3.52893 5.11084 1.83249 4.87754 1.07578 5.92324C0.64949 6.51234 0.945951 6.88754 0 6.80715V4.28352C0.0108431 4.26729 0.0280463 4.23773 0.0289016 4.2184C0.0439799 3.87756 0.0459584 3.29854 0.136542 2.97074C0.446555 2.87059 0.720477 2.73117 1.04345 2.6557C1.41925 2.55375 1.77678 2.57525 2.15555 2.55457C2.94039 2.51172 3.5582 2.67783 4.30074 2.87229C4.93187 3.03756 5.55969 3.27271 6.17676 3.43742Z" fill="#FEFEFE"/>
<path d="M10.9327 4.40139C11.3585 4.34896 12.1236 4.36314 12.4467 4.69529C12.5922 4.84486 12.5877 5.0981 12.4136 5.23055C12.1425 5.43674 11.8099 5.42463 11.4894 5.396C10.9195 5.34014 10.2499 5.16904 9.75781 4.86851C10.1128 4.56459 10.4759 4.46213 10.9327 4.40139Z" fill="#FA5A1C"/>
</g>
<defs>
<clipPath id="clip0_372_831">
<rect width="20" height="20" fill="white"/>
</clipPath>
</defs>
</svg>
