<?xml version="1.0" encoding="utf-8"?>
<svg version="1.1" id="Layer_1" xmlns="http://www.w3.org/2000/svg" xmlns:xlink="http://www.w3.org/1999/xlink" x="0px" y="0px"
	 viewBox="910 910 180 180" style="enable-background:new 910 910 180 180;" xml:space="preserve">
<style type="text/css">
	.st0{fill:#0065A1;}
	.st1{fill:#F5FCFF;}
</style>
<g>
	<path class="st0" d="M1000,910c49.7,0,90,40.3,90,90c0,49.7-40.3,90-90,90c-49.7,0-90-40.3-90-90C910,950.3,950.3,910,1000,910z"/>
</g>
<path class="st1" d="M975.9,1041v-59.3h-19.7v59.3H975.9L975.9,1041z M966,973.6c6.9,0,11.2-4.6,11.2-10.3
	c-0.1-5.8-4.3-10.3-11-10.3s-11.2,4.4-11.2,10.3C955,969,959.3,973.6,966,973.6L966,973.6L966,973.6z"/>
<path class="st1" d="M986.8,1041h19.7v-33.1c0-1.8,0.1-3.5,0.6-4.8c1.4-3.5,4.7-7.2,10.1-7.2c7.1,0,10,5.4,10,13.4v31.7h19.7v-34
	c0-18.2-9.7-26.7-22.7-26.7c-10.6,0-15.3,5.9-17.9,10h0.1v-8.6h-19.7C987.1,987.3,986.8,1041,986.8,1041L986.8,1041z"/>
</svg>
