<svg id="Layer_1" data-name="Layer 1" xmlns="http://www.w3.org/2000/svg" viewBox="0 0 180 180"><defs><style>.cls-1{fill:#ea4c89;}.cls-2{fill:#fff;fill-rule:evenodd;}</style></defs><title>social-link-twitter</title><path class="cls-1" d="M90,0A90,90,0,1,1,0,90,90,90,0,0,1,90,0Z"/><path class="cls-2" d="M90,148.07A58.07,58.07,0,1,1,148.07,90,58.13,58.13,0,0,1,90,148.07Zm49-50.12a72.79,72.79,0,0,0-30.89-2.12,214,214,0,0,1,9.64,35.36A49.68,49.68,0,0,0,139,97.95Zm-29.6,37.78A206.18,206.18,0,0,0,98.79,98.12l-0.33.11c-28,9.75-38,29.15-38.91,31A49.53,49.53,0,0,0,109.37,135.73ZM53.15,123.24c1.12-1.92,14.74-24.46,40.31-32.73q1-.31,2-0.59c-1.24-2.82-2.6-5.64-4-8.42-24.77,7.41-48.8,7.1-51,7.06,0,0.5,0,1,0,1.52A49.4,49.4,0,0,0,53.15,123.24ZM41.45,79.92a185,185,0,0,0,45.85-6A316.44,316.44,0,0,0,68.91,45.19,49.78,49.78,0,0,0,41.45,79.92ZM78.38,41.86a264.72,264.72,0,0,1,18.51,29c17.64-6.61,25.1-16.65,26-17.92A49.54,49.54,0,0,0,78.38,41.86Zm50,16.85c-1,1.41-9.36,12.07-27.69,19.56C101.85,80.63,103,83,104,85.45q0.55,1.29,1.07,2.56c16.5-2.08,32.9,1.25,34.54,1.6A49.36,49.36,0,0,0,128.39,58.71Z"/></svg>