<?xml version="1.0" encoding="utf-8"?>
<svg version="1.1" id="Layer_1" xmlns="http://www.w3.org/2000/svg" xmlns:xlink="http://www.w3.org/1999/xlink" x="0px" y="0px"
	 viewBox="910 910 180 180" style="enable-background:new 910 910 180 180;" xml:space="preserve">
<style type="text/css">
	.st0{fill:#41A8F6;}
	.st1{fill:#F5FCFF;}
</style>
<g>
	<path class="st0" d="M1000,910c49.7,0,90,40.3,90,90c0,49.7-40.3,90-90,90c-49.7,0-90-40.3-90-90C910,950.3,950.3,910,1000,910z"/>
	<path class="st1" d="M1061,972.7L1061,972.7L1061,972.7 M1026.7,961.9c-12.7,0-22.9,10.4-22.9,23.1c0,1.8,0.2,3.6,0.6,5.3
		c-19-1-35.9-10.2-47.2-24.2c-2,3.4-3.1,7.4-3.1,11.6c0,8,4,15.1,10.2,19.3c-3.8-0.1-7.3-1.2-10.4-2.9c0,0.1,0,0.2,0,0.3
		c0,11.2,7.9,20.6,18.4,22.7c-1.9,0.5-3.9,0.8-6,0.8c-1.5,0-2.9-0.1-4.3-0.4c2.9,9.2,11.4,15.9,21.4,16.1
		c-7.8,6.2-17.7,9.9-28.5,9.9c-1.8,0-3.7-0.1-5.5-0.3c10.1,6.6,22.2,10.4,35.1,10.4c42.1,0,65.2-35.3,65.2-65.8c0-1,0-2-0.1-3
		c4.5-3.3,8.4-7.3,11.4-12c-4.1,1.8-8.5,3.1-13.2,3.6c4.7-2.9,8.4-7.4,10.1-12.8c-4.4,2.7-9.3,4.6-14.5,5.6
		C1039.2,964.7,1033.3,961.9,1026.7,961.9"/>
</g>
</svg>
