<?xml version="1.0" encoding="utf-8"?>
<svg version="1.1" id="Layer_1" xmlns="http://www.w3.org/2000/svg" xmlns:xlink="http://www.w3.org/1999/xlink" x="0px" y="0px"
	 viewBox="910 910 180 180" style="enable-background:new 910 910 180 180;" xml:space="preserve">
<style type="text/css">
	.st0{fill:#1A2226;}
	.st1{fill:#F5FCFF;}
</style>
<g>
	<path class="st0" d="M1000,910c49.7,0,90,40.3,90,90c0,49.7-40.3,90-90,90c-49.7,0-90-40.3-90-90C910,950.3,950.3,910,1000,910z"/>
</g>
<path class="st1" d="M1000,949.4c-28.7,0-51.9,23.2-51.9,51.9c0,22.9,14.9,42.4,35.5,49.3c2.6,0.5,3.5-1.1,3.5-2.5
	c0-1.2,0-4.5-0.1-8.8c-14.4,3.1-17.5-7-17.5-7c-2.4-6-5.8-7.6-5.8-7.6c-4.7-3.2,0.4-3.2,0.4-3.2c5.2,0.4,8,5.4,8,5.4
	c4.6,7.9,12.2,5.6,15.1,4.3c0.5-3.4,1.8-5.6,3.3-6.9c-11.5-1.3-23.7-5.8-23.7-25.7c0-5.7,2-10.3,5.3-13.9c-0.5-1.3-2.3-6.6,0.5-13.7
	c0,0,4.4-1.4,14.3,5.3c4.1-1.2,8.6-1.7,13-1.7s8.9,0.6,13,1.7c9.9-6.7,14.3-5.3,14.3-5.3c2.8,7.1,1.1,12.4,0.5,13.7
	c3.3,3.6,5.3,8.3,5.3,13.9c0,19.9-12.1,24.3-23.7,25.6c1.9,1.6,3.5,4.8,3.5,9.6c0,6.9-0.1,12.5-0.1,14.2c0,1.4,0.9,3,3.6,2.5
	c20.6-6.9,35.5-26.3,35.5-49.3C1051.9,972.6,1028.7,949.4,1000,949.4z"/>
</svg>
