<?xml version="1.0" encoding="utf-8"?>
<svg version="1.1" id="Layer_1" xmlns="http://www.w3.org/2000/svg" xmlns:xlink="http://www.w3.org/1999/xlink" x="0px" y="0px"
	 width="314px" height="100px" viewBox="0 0 314 100" style="enable-background:new 0 0 314 100;" xml:space="preserve">
<style type="text/css">
	.st0{fill:#1A2226;}
</style>
<path class="st0" d="M212.4,50.7c-0.6,2.8-1.1,5.3-1.2,7.5c-1.2,9.6,2.1,14.5,10.2,13c7-1.3,12.1-9.1,12.1-9.1s-1.9,4.7-0.3,9
	c1.7,4.4,8.7,6,14.3,1.5c5.3-4.2,7-8,7-8s-0.2,3.3,1.7,5.9c2.4,3.4,8.6,3.2,14.2-0.8c2.7-1.9,5-4.7,6.7-7.3c0.5,1.1,1.1,2.1,1.9,3
	c5.7,6.3,14.7,4.5,19.2-1.6c2.8-3.7,4-8.4,4.5-12.3c-0.5-0.5-1.4-1-3.1-0.6c-0.5,0.1-0.8,0.3-1,0.4c-0.5,2.7-1.9,7.1-4.2,10.1
	c-2.7,3.7-6.8,0.9-6.1-4.3c0.5-3.9,3.5-7.2,5.7-9.4c0,0,1,2.4,5.5,2.4c7.1,0,13.9-5.9,13.9-15c0-5.9-3.8-13.1-15.4-10.8
	c-8.9,1.7-14.1,5.1-22.5,7.7c2.7-6.7,5.5-12.8,6.6-14.4c1.8-2.4-0.2-4-2.4-4c-2.3,0-8.7,0.6-11.6,7.1c-1.4,3-3.5,8.6-5.6,14
	c-8.3,1.1-6.4-0.6-6.4-0.6s1-3.9-1-6.5c-1.9-2.6-6.6-2.9-9.1,0c-2.2,2.7-2.4,7.5,1.5,10.2c2.4,1.7,6.2,2.7,13,2.2
	c-1.5,4.2-2.8,7.8-3.3,9.6c-1.5,4.9-3.1,10.7-3.1,10.7s-2.8,6.2-7.5,8.5c-3.4,1.7-4.2,0.2-3.6-3.4c0.7-4.3,5.3-16.4,6.5-18.4
	c1.1-2,1.1-4.3-4.2-3.4c-5.3,1-8.5,3.5-10.2,9.2c-2.5,8.5-7.2,12-10.2,12c-1.7,0-2.8-0.8-2.8-5.2c0-4,4.5-18.3,4.5-18.3c0,0,0,0,0,0
	c-0.5,2.4-0.3,3.1-0.1,3.3c4.3-2.8,8.2-6.3,10.9-9.8c6.1-7.8,8.9-23.9,2.6-27s-13.7,3.9-18.1,14.6c-2.7,6.7-5.9,15.3-8.1,23.1
	c-1.4,0.5-2.6,0.7-3.6,0.8c0-1.1-0.1-2-0.2-2.7c-0.6-2.8-3-3.9-5.3-3.6c0.2-1.3-0.1-2.6-1-3.5c-3.1-3.2-8.7-2.4-12.8,1.3
	c-2.9,2.7-7.8,10.5-7.7,17.9c-1.2,0.9-4.3,3-8.5,3.7c0,0,0,0,0,0c1.8-1.9,3.3-4.6,4.3-8.4c2.5-8.8,0.4-17.6-5.1-18.5
	c-5.5-0.9-9.2,2.4-9.2,2.4s-0.8-4.7-6.2-3.7c-4.9,0.9-6.7,2.7-9.2,8.4c-1.7,4-3.1,8.9-4.2,13.7c-1.6,2.2-4,4.5-6.4,3.8
	c-2.2-0.6-2-3.6-0.2-10c1.8-6.8,2.9-9.9,3.8-12.2c1-2.3-0.5-3.5-1.4-3.8c-1.9-0.6-4.7-0.6-6.7,0c-3,0.9-4.3,3.1-4.3,3.1
	s-6.8-4.5-14.4,1c-7.5,5.6-10.2,17.9-7.5,23.4c2.7,5.5,9.1,6.8,12.7,5.6c3.6-1.2,5.3-3.5,5.3-3.5s2.3,5.2,8.8,4.7
	c3.5-0.3,6.9-3.5,9.2-6.3c0,0-0.8,4.7-1.4,9.8c-0.5,4.3-1.4,7.1-1.4,7.1c-11.6,3.2-19.6,9.8-19.6,16c0,5.8,5.6,7.7,9.6,7.7
	c5.9,0,10.5-3.1,13-5.6c7-7,8.6-17.9,8.6-17.9c-0.1,0.8-0.1,1.9,0.7,2.3c3.4-0.1,7.1,0.1,11.2,0.8c18,2.8,44.7,11.9,75.7,12.7
	c31,0.8,41.1-3.3,46.4-6.1c3.1-1.6,4-3.4,3.2-4c-0.7-0.5-2.5,0.3-4.7,1.2c-5.4,2.2-20,5-50.5,2.9c-29.9-2.1-63.2-12.8-81.6-12
	c0,0,0,0,0,0c0.1-0.4,0.3-1.9,0.3-2.2c0.4-3.9,1.1-8,1.8-11.8c0,0,1.8,4,8.3,4c2.2,0,4.3-0.7,4.3-0.7c6.3,0.6,13.1-3.4,15.6-5.1
	c0.4,1.9,1.1,3.8,2.5,5.4c5.4,6.9,14.7,4.5,19.2-1.6c2.2-3,3.6-6.6,4.4-10c-0.3-0.2-0.8-0.3-2-0.3c-1.4,0-2.1,0.3-2.5,0.6
	c-0.6,2.4-1.8,5.3-3.6,7.4c-3,3.4-6.8,0.9-6.1-4.3c0.4-3.6,3.1-6.7,5.2-8.9c0,0,0.7,4.5,7.5,4.5C210.6,51.1,212.4,50.7,212.4,50.7z
	 M125.6,48.9c-0.6,3.4-0.8,6.2-0.8,6.2s-2.3,1.8-4.2,1.8c-1.9,0-3.2-3.6-1.9-8.1c1.3-4.5,4-7.3,6.3-8.7c2.3-1.5,2.9-0.2,2.9-0.2
	S126.2,45.4,125.6,48.9z M135,86.9c-3.7,3.3-7,2.5-4-1.3c2.4-2.9,8.2-4.8,8.2-4.8S137.6,84.6,135,86.9z M156.4,53.8
	c0.7-3.1,1.5-5.7,2.2-7.4c1.8-4.5,3.6-6,3.6-6s1.8-1.6,3.7-0.1c1.9,1.5,2.1,5.1,1.1,8.8c-1,3.8-2.7,6-4.2,7.1
	c-0.2-0.2-0.4-0.4-0.6-0.6C161,54.4,158.3,52.7,156.4,53.8z M237.3,25.7c-1.8,3.8-5,7.9-9.3,11.6c3.7-10,8.5-19.1,10.3-21.8
	C240.6,12.1,240.4,19.2,237.3,25.7z M306.8,42.2c-1.2,2.3-2.5,3.5-3.7,4c0-0.3,0-0.6,0-0.8c-0.1-2.6-2.8-4.3-5.3-4.3
	c0-1.1-0.3-2.1-1-2.9c-3.1-3.2-8.7-2.4-12.8,1.3c-3.2,2.9-9,12-7.8,19.8c-2.8,4.3-7.1,7-9.4,5.9c-2.4-1.1,1.3-12.8,4.7-22.5
	c0.5-1.5,1.1-3,1.7-4.6c0.1,0,0.1,0,0.2,0c14.4-3,24.4-8.9,30.4-6.2C309,34.5,308.2,39.3,306.8,42.2z M88.7,84.2
	C84.5,86,78.7,88,70.2,90c-18.7,4.5-30.9,0.5-32.7-0.1c-1.7-0.6-0.8-3,1.6-2.6c2.4,0.4,18.1,1.8,32.3-2c5.4-1.5,10.2-3.5,14.6-5.4
	c0,0,0.5,0,1.4,0.9C89.1,82.3,88.7,84.2,88.7,84.2z M98.3,68.7c0-9.7,4.3-15.9,4.3-23.4c0-3.9-1.5-8.3-7.7-8.3
	c-6.2,0-11.7,7.5-11.7,7.5s3.3-8.4,5.7-15.5c0.1-0.3,0.2-0.6,0.3-0.9C89.1,28,89.1,28,89,27.9c-1.8-1.9-6.2-2.1-9.6-1.7
	c-1.3,0.2-2,0.7-2.4,1.2c-1.9,9.3-6.8,25-15,33.5C51.7,71.4,38.7,69.8,38,60.4c-0.3-5,2.2-11,5.2-15.9c1.5-2.5,3-4.7,4.3-6.4
	c0.9-1.2,1.7-2.1,2.3-2.7c2.9-2.9,5-4.5,6.3-3.8c1.3,0.8-0.1,6.8-4.3,7.4c-0.9,0.1-2.2,0.1-3.7-0.2c-0.5,0.3-1.2,0.9-1.9,2
	c-1,1.6-1,2.8-0.7,3.4c3.3,0.6,6.5,0.8,9.7,0c9.2-2,11.9-11.1,9.6-14.8c-2.5-4-11.8-5.4-21.3-0.5c-3.7,1.9-7,4.5-9.8,7.4
	c-2.9-0.4-6-0.6-9.1-0.5c-11.7,0.4-21.1,6-22.9,7.6c-1.8,1.6-0.8,3.7,2,2c2.8-1.6,10.9-5.7,22.8-5.1c1.2,0.1,2.3,0.2,3.4,0.3
	c-4.1,5.6-6.6,12-7.1,17.3c-0.9,9.9,5.2,21,18.5,19.9c13.4-1.1,24.5-16.8,24.5-16.8s-1.1,7,0.6,9.2c1.7,2.2,7.7,1.9,10,1.1
	c2.4-0.9,1.4-2.7,1.7-6.7s3.2-11.7,4.7-14.3c1.5-2.6,4.7-6.8,7.1-6.4c2.4,0.4-0.3,6.3-1.4,10c-1.1,3.8-3.4,8.9-3.4,17.2
	c0,13,11.5,16.5,17.8,16.5c7.4,0,12-4.2,12-8.3c0-4.2-5.6-6-9.4-6c-4.1,0-7,1-7,1S98.3,73.1,98.3,68.7z M100.3,78.1
	c0,0,0.9,1.1,2.2,1.2c0,0,0.8-0.1,2-0.1c2.9,0,5.1,0.6,5.1,1.8c0,0.9-1.4,1.1-2.2,1.1C103.1,82.1,100.3,78.1,100.3,78.1z M80.9,25.3
	c3.4,0.1,7.2-0.2,11.3-0.7c14.8-1.8,33.9-6.7,52-7.9c23.2-1.6,41.4,3.4,48.6,5.2c7.2,1.7,9.4,2.2,10,1.6c0.6-0.5,0.1-2-4.5-4
	c-4.6-1.9-19.4-7.8-45.7-8.2c-25.3-0.4-46.8,6-61.7,8c0.4-6.1-1-12.6-6.9-16.4c-9.5-6-19,0.4-20.3,5.5c-1.1,4.3,1,13.4,11.4,16.1
	C76.8,24.9,78.7,25.2,80.9,25.3z M71.9,11.3c2.4,0.4,5.6,3.1,6.1,8c-3.5-0.8-5.2-2.1-6.1-2.8C70.4,15.3,69.1,10.8,71.9,11.3z"/>
</svg>
