<svg preserveAspectRatio="none" width="100%" height="100%" overflow="visible" style="display: block;" viewBox="0 0 32 32" fill="none" xmlns="http://www.w3.org/2000/svg">
<g id="Frame 2147258379">
<g id="Ellipse 6356" opacity="0.3">
<g filter="url(#filter0_i_0_19164)">
<circle cx="16" cy="16" r="16" fill="url(#paint0_linear_0_19164)"/>
</g>
<circle cx="16" cy="16" r="15.75" stroke="var(--stroke-0, black)" stroke-opacity="0.1" stroke-width="0.5"/>
</g>
<path id="Shape" fill-rule="evenodd" clip-rule="evenodd" d="M16.875 12.3248L21.1625 16.6123C21.5008 16.9505 22.0492 16.9505 22.3875 16.6123C22.7258 16.274 22.7258 15.7255 22.3875 15.3873L16 8.99976L9.6125 15.3873C9.27422 15.7255 9.27423 16.274 9.6125 16.6123C9.95077 16.9505 10.4992 16.9505 10.8375 16.6123L15.125 12.3248L15.125 22.1248C15.125 22.608 15.5168 22.9998 16 22.9998C16.4832 22.9998 16.875 22.608 16.875 22.1248L16.875 12.3248Z" fill="var(--fill-0, #8C9FD8)"/>
</g>
<defs>
<filter id="filter0_i_0_19164" x="0" y="0" width="32" height="34" filterUnits="userSpaceOnUse" color-interpolation-filters="sRGB">
<feFlood flood-opacity="0" result="BackgroundImageFix"/>
<feBlend mode="normal" in="SourceGraphic" in2="BackgroundImageFix" result="shape"/>
<feColorMatrix in="SourceAlpha" type="matrix" values="0 0 0 0 0 0 0 0 0 0 0 0 0 0 0 0 0 0 127 0" result="hardAlpha"/>
<feOffset dy="2"/>
<feGaussianBlur stdDeviation="2"/>
<feComposite in2="hardAlpha" operator="arithmetic" k2="-1" k3="1"/>
<feColorMatrix type="matrix" values="0 0 0 0 1 0 0 0 0 1 0 0 0 0 1 0 0 0 0.25 0"/>
<feBlend mode="normal" in2="shape" result="effect1_innerShadow_0_19164"/>
</filter>
<linearGradient id="paint0_linear_0_19164" x1="16" y1="-77" x2="16" y2="32" gradientUnits="userSpaceOnUse">
<stop stop-color="#D75DCE"/>
<stop offset="1" stop-color="#5A98FE"/>
</linearGradient>
</defs>
</svg>
