<svg preserveAspectRatio="none" width="100%" height="100%" overflow="visible" style="display: block;" viewBox="0 0 52 52" fill="none" xmlns="http://www.w3.org/2000/svg">
<g id="Frame 2147258379">
<g id="Ellipse 6356" filter="url(#filter0_ddi_0_19143)">
<circle cx="26" cy="24" r="16" fill="url(#paint0_linear_0_19143)"/>
<circle cx="26" cy="24" r="15.75" stroke="var(--stroke-0, black)" stroke-opacity="0.1" stroke-width="0.5"/>
</g>
<path id="Shape" fill-rule="evenodd" clip-rule="evenodd" d="M26.875 20.3248L31.1625 24.6123C31.5008 24.9505 32.0492 24.9505 32.3875 24.6123C32.7258 24.274 32.7258 23.7255 32.3875 23.3873L26 16.9998L19.6125 23.3873C19.2742 23.7255 19.2742 24.274 19.6125 24.6123C19.9508 24.9505 20.4992 24.9505 20.8375 24.6123L25.125 20.3248L25.125 30.1248C25.125 30.608 25.5168 30.9998 26 30.9998C26.4832 30.9998 26.875 30.608 26.875 30.1248L26.875 20.3248Z" fill="var(--fill-0, white)"/>
</g>
<defs>
<filter id="filter0_ddi_0_19143" x="0" y="0" width="52" height="52" filterUnits="userSpaceOnUse" color-interpolation-filters="sRGB">
<feFlood flood-opacity="0" result="BackgroundImageFix"/>
<feColorMatrix in="SourceAlpha" type="matrix" values="0 0 0 0 0 0 0 0 0 0 0 0 0 0 0 0 0 0 127 0" result="hardAlpha"/>
<feOffset dy="1"/>
<feGaussianBlur stdDeviation="1"/>
<feComposite in2="hardAlpha" operator="out"/>
<feColorMatrix type="matrix" values="0 0 0 0 0 0 0 0 0 0 0 0 0 0 0 0 0 0 0.1 0"/>
<feBlend mode="normal" in2="BackgroundImageFix" result="effect1_dropShadow_0_19143"/>
<feColorMatrix in="SourceAlpha" type="matrix" values="0 0 0 0 0 0 0 0 0 0 0 0 0 0 0 0 0 0 127 0" result="hardAlpha"/>
<feOffset dy="2"/>
<feGaussianBlur stdDeviation="5"/>
<feComposite in2="hardAlpha" operator="out"/>
<feColorMatrix type="matrix" values="0 0 0 0 0 0 0 0 0 0 0 0 0 0 0 0 0 0 0.3 0"/>
<feBlend mode="normal" in2="effect1_dropShadow_0_19143" result="effect2_dropShadow_0_19143"/>
<feBlend mode="normal" in="SourceGraphic" in2="effect2_dropShadow_0_19143" result="shape"/>
<feColorMatrix in="SourceAlpha" type="matrix" values="0 0 0 0 0 0 0 0 0 0 0 0 0 0 0 0 0 0 127 0" result="hardAlpha"/>
<feOffset dy="2"/>
<feGaussianBlur stdDeviation="2"/>
<feComposite in2="hardAlpha" operator="arithmetic" k2="-1" k3="1"/>
<feColorMatrix type="matrix" values="0 0 0 0 1 0 0 0 0 1 0 0 0 0 1 0 0 0 0.25 0"/>
<feBlend mode="normal" in2="shape" result="effect3_innerShadow_0_19143"/>
</filter>
<linearGradient id="paint0_linear_0_19143" x1="26" y1="-69" x2="26" y2="40" gradientUnits="userSpaceOnUse">
<stop stop-color="#D75DCE"/>
<stop offset="1" stop-color="#146DFF"/>
</linearGradient>
</defs>
</svg>
