<svg width="20" height="14" viewBox="0 0 20 14" fill="none" xmlns="http://www.w3.org/2000/svg">
<path fill-rule="evenodd" clip-rule="evenodd" d="M5.74707 0C7.34302 0 8.67683 0.774326 10.2715 2.80469C10.5835 2.38281 10.9041 1.984 11.2383 1.62793C11.2426 1.62336 11.2477 1.61881 11.252 1.61426L11.5957 1.26953C12.4106 0.500786 13.3095 0.000120587 14.3535 0C15.485 0 16.544 0.526097 17.4316 1.42285C17.4361 1.42731 17.4409 1.43204 17.4453 1.43652C18.9409 2.95684 19.9483 5.53165 19.998 8.41113V8.42969C19.9991 8.49756 20 8.56559 20 8.63379C20 9.97745 19.7288 11.0862 19.2119 11.8838L19.2012 11.8994C19.1892 11.9177 19.1773 11.9361 19.165 11.9541C19.1477 11.9796 19.1292 12.0045 19.1113 12.0293C18.818 12.4357 18.4554 12.751 18.0264 12.9648C18.0127 12.9716 17.9991 12.9788 17.9854 12.9854C17.9615 12.9968 17.9373 13.0078 17.9131 13.0186C17.8371 13.0525 17.7587 13.0827 17.6787 13.1104L17.6797 13.1113C17.6762 13.1125 17.6725 13.1131 17.6689 13.1143C17.6666 13.1151 17.6645 13.1164 17.6621 13.1172L17.6611 13.1162C17.3253 13.2302 16.9558 13.29 16.5537 13.29C16.1161 13.29 15.7231 13.234 15.3545 13.1104C15.3503 13.1089 15.346 13.1079 15.3418 13.1064C15.3405 13.106 15.3392 13.1059 15.3379 13.1055C14.7694 12.9115 14.2664 12.5617 13.7402 12.001L13.7275 11.9873C13.0994 11.3143 12.4483 10.3467 11.6494 9.00977L10.8252 7.62402L10.8164 7.60742L10.6689 7.36035C10.4359 6.96774 10.2141 6.60307 10.0039 6.26367C9.40415 7.32419 8.5332 8.86328 8.5332 8.86328C6.44179 12.5191 5.26564 13.29 3.62988 13.29C2.61632 13.29 1.78496 12.9384 1.1748 12.2998L1.05566 12.168C1.05168 12.1633 1.04693 12.159 1.04297 12.1543C0.650645 11.6919 0.362482 11.0989 0.189453 10.3965L0.12207 10.0889C0.120921 10.0828 0.119296 10.0764 0.118164 10.0703C0.039882 9.65239 8.16027e-06 9.19993 0 8.7168V8.69629C0.00160612 7.91981 0.0768498 7.1451 0.224609 6.38281C0.225754 6.37692 0.227365 6.37112 0.228516 6.36523C0.499558 4.97912 1.00121 3.69356 1.67383 2.64648C1.67683 2.64183 1.67962 2.63648 1.68262 2.63184C2.70606 1.04558 4.12354 0.00892866 5.72656 0H5.74707ZM5.70215 2.17285C4.90439 2.1814 4.16033 2.75518 3.5625 3.65527C3.55944 3.65988 3.55579 3.66432 3.55273 3.66895L3.34961 3.99902C2.8904 4.79841 2.53633 5.79722 2.33887 6.86328L2.33594 6.88086C2.22207 7.4985 2.16416 8.12585 2.16309 8.75391C2.16311 8.80002 2.16398 8.84573 2.16504 8.89062V8.90918C2.16754 9.02239 2.17457 9.13542 2.18555 9.24805L2.23145 9.58496C2.23249 9.59081 2.23329 9.59672 2.23438 9.60254C2.3111 10.0178 2.44863 10.3537 2.63965 10.6035L2.72461 10.7051C2.72876 10.7096 2.73311 10.7143 2.7373 10.7188C2.98935 10.9868 3.31815 11.1269 3.71191 11.127C4.656 11.127 5.24279 10.5311 6.93848 7.87305C6.9504 7.85412 7.71892 6.63381 8.98145 4.69727C7.64086 2.7781 6.76703 2.17188 5.71973 2.17188C5.71386 2.17188 5.70801 2.17279 5.70215 2.17285ZM14.2168 1.71387C13.577 1.71387 12.9997 2.02421 12.4033 2.64453C12.399 2.64901 12.394 2.65272 12.3896 2.65723C12.0239 3.0403 11.6508 3.54022 11.251 4.15723C11.5436 4.59113 11.8485 5.06655 12.166 5.58301L12.1758 5.59863L13.3379 7.53906C14.2304 8.97507 14.7981 9.86299 15.2568 10.3965C15.261 10.4013 15.2654 10.4064 15.2695 10.4111C15.5356 10.7182 15.7655 10.9052 16.002 11.0107C16.1898 11.0947 16.382 11.1269 16.5996 11.127C16.7397 11.1282 16.8791 11.1089 17.0137 11.0703C17.3453 10.973 17.5995 10.7517 17.7773 10.4189C17.7804 10.4133 17.7831 10.4071 17.7861 10.4014L17.8584 10.2461C18.0157 9.86721 18.0937 9.374 18.0938 8.78125C18.0938 8.66323 18.092 8.54532 18.0889 8.42871C18.0887 8.42252 18.0881 8.41634 18.0879 8.41016L18.0674 7.94824C17.9206 5.6608 17.1759 3.70376 16.1211 2.62012L16.1084 2.60645C15.5502 2.03825 14.9053 1.71399 14.2168 1.71387Z" fill="white"/>
</svg>
