<?xml version="1.0" encoding="utf-8"?>
<svg version="1.1" id="Layer_1" xmlns="http://www.w3.org/2000/svg" xmlns:xlink="http://www.w3.org/1999/xlink" x="0px" y="0px"
	 width="990px" height="330px" viewBox="0 0 990 330" style="enable-background:new 0 0 990 330;" xml:space="preserve">
<style type="text/css">
	.st0{fill-rule:evenodd;clip-rule:evenodd;fill:#F4F5E0;}
	.st1{fill:#0E3450;}
	.st2{fill:#2C9FD8;}
	.st3{fill:#EB4F5F;}
	.st4{fill:#F4F3DF;}
	.st5{fill:#F4F5E0;}
</style>
<path class="st0" d="M0,0h990v330H0V0z"/>
<g>
	<path class="st1" d="M319.6,216.3l-0.6-0.2c-0.3-0.1-6.7-2.4-18-2.4c-11.3,0-19,2.3-19.3,2.4l-0.6,0.2v0.7c0,1.6,0,3.2,0.1,4.7
		l-0.1,0v0.7c0,17.9,2.8,28,2.9,28.4l0.1,0.3l0.3,0.2c8.8,6.2,15.5,8.5,15.7,8.6l0.3,0.1l0.3-0.1c0.1,0,8.3-3.3,15.7-8.6l0.3-0.2
		l0.1-0.3c0-0.1,2.9-10.9,2.9-28.4v-0.6l-0.1,0c0-1.5,0.1-3.1,0.1-4.7V216.3z M315,249.9c-6.4,4.5-13.2,7.5-14.8,8.1
		c-1.4-0.5-7.3-2.9-14.7-8.1c-0.5-1.8-2.7-11.4-2.8-26.9c2.1-0.5,9-2.2,18.2-2.2c9.1,0,15,1.6,16.8,2.1
		C317.7,238.2,315.5,248.1,315,249.9z M282.8,217.6c2.1-0.5,9-2.2,18.2-2.2c9.1,0,15,1.6,16.8,2.1c0,1.2,0,2.4-0.1,3.5
		c-2.4-0.7-8.2-2-16.8-2c-8.9,0-15.5,1.4-18.1,2.1C282.8,220,282.8,218.8,282.8,217.6z"/>
	<polygon class="st1" points="296,247.6 300.4,247.6 300.4,240.6 306.1,240.6 306.1,236.4 300.4,236.4 300.4,233.1 308.6,233.1 
		308.6,228.7 294.3,228.7 294.3,233.1 296,233.1 	"/>
</g>
<g>
	<path class="st1" d="M512.6,216.8h-0.9c-11.8,0-17.6-7.3-17.7-7.4l-0.7-0.9l-0.7,0.9c-0.1,0.1-5.9,7.4-17.7,7.4H474v0.9
		c0,1.3,0,2.5,0,3.7h0v0.9c0,1.3,0,2.5,0,3.6h0v0.9c0,18,2.8,28,2.9,28.4l0.1,0.3l0.3,0.2c7.4,5.3,15.6,8.6,15.7,8.6l0.3,0.1
		l0.3-0.1c0.1,0,8.3-3.3,15.7-8.6l0.3-0.2l0.1-0.3c0.1-0.4,2.9-10.4,2.9-28.4V226h0c0-1.2,0-2.4,0-3.6v-0.9h0c0-1.2,0-2.5,0-3.7
		V216.8z M508,254.5c-6.4,4.4-13.2,7.4-14.7,8.1c-1.6-0.7-8.4-3.6-14.7-8.1c-0.5-1.8-2.7-11.3-2.8-26.7c10.2-0.1,15.9-2.6,17.5-3.4
		c1.6,0.8,7.3,3.3,17.5,3.4C510.7,243.2,508.5,252.7,508,254.5z M475.8,218.6c9.9-0.3,15.6-5.3,17.5-7.2c1.9,2,7.6,7,17.5,7.2
		c0,1,0,1.9,0,2.8c-11.2-0.3-16.8-5-16.9-5.1l-0.6-0.5l-0.6,0.5c-0.1,0-5.6,4.8-16.9,5.1C475.8,220.5,475.8,219.6,475.8,218.6z
		 M475.8,223.2c10-0.2,15.7-3.8,17.5-5.1c1.8,1.3,7.5,4.9,17.5,5.1c0,0.9,0,1.9,0,2.8c-11.3-0.2-17-3.4-17-3.4l-0.5-0.3l-0.5,0.3
		c-0.1,0-5.6,3.3-17,3.4C475.8,225.1,475.8,224.2,475.8,223.2z"/>
	<polygon class="st1" points="489,252.2 493.4,252.2 493.4,245.1 499.1,245.1 499.1,240.9 493.4,240.9 493.4,237.6 501.6,237.6 
		501.6,233.2 487.4,233.2 487.4,237.6 489,237.6 	"/>
</g>
<g>
	<path class="st1" d="M576.9,217.3H576c-7.2,0-10.1-0.6-12.4-1.1c-1.8-0.4-3.3-0.7-6-0.7c-2.7,0-4.2,0.3-6,0.7
		c-2.3,0.5-5.3,1.1-12.4,1.1h-0.9v0.9c0,1.1,0,2.2,0,3.3h0v0.9c0,18,2.8,28,2.9,28.4l0.1,0.3l0.3,0.2c7.5,5.3,15.5,6.8,15.9,6.9
		l0.2,0l0.2,0c0.3-0.1,8.4-1.6,15.9-6.9l0.3-0.2l0.1-0.3c0.1-0.4,2.9-10.4,2.9-28.4v-0.9h0c0-1.1,0-2.1,0-3.3V217.3z M542.9,249.9
		c-0.5-1.8-2.7-11.3-2.8-26.7c6.7,0,9.6-0.7,11.9-1.1c1.7-0.4,3.1-0.6,5.6-0.6s3.9,0.3,5.6,0.6c2.3,0.5,5.2,1.1,11.9,1.1
		c-0.1,15.5-2.3,25-2.8,26.7c-6.5,4.5-13.6,6.1-14.7,6.4C556.5,256,549.4,254.5,542.9,249.9z M540.1,219c6.7,0,9.6-0.7,11.9-1.1
		c1.7-0.4,3.1-0.6,5.6-0.6s3.9,0.3,5.6,0.6c2.3,0.5,5.2,1.1,11.9,1.1c0,0.8,0,1.6,0,2.4c-6.5-0.1-9.3-0.6-11.5-1.1
		c-1.8-0.4-3.3-0.7-6-0.7c-2.7,0-4.2,0.3-6,0.7c-2.2,0.5-5,1-11.5,1.1C540.1,220.6,540.1,219.8,540.1,219z"/>
	<polygon class="st1" points="553.3,247.6 557.7,247.6 557.7,240.5 563.5,240.5 563.5,236.3 557.7,236.3 557.7,233 565.9,233 
		565.9,228.7 551.7,228.7 551.7,233 553.3,233 	"/>
</g>
<g>
	<path class="st1" d="M640.1,220.4c-2.5,0.8-4.5,0.3-7.4-0.4c-2.6-0.7-5.9-1.5-10.7-1.5c-5,0-8.3,0.9-11,1.6
		c-2.9,0.7-4.7,1.2-7.1,0.3l-1.2-0.5v1.3c0,18,2.8,28,2.9,28.4l0.2,0.6h0.7c8.6,0,14.9,4.4,15,4.5l0.5,0.3l0.5-0.3
		c0.1,0,7.2-4.5,15-4.5h0.7l0.2-0.6c0.1-0.4,2.9-10.4,2.9-28.4V220L640.1,220.4z M622,253c-1.7-1.1-7.3-4.3-14.9-4.5
		c-0.6-2.4-2.6-11.6-2.7-26.1c2.3,0.6,4.4,0,7-0.6c2.6-0.7,5.8-1.5,10.5-1.5c4.6,0,7.8,0.8,10.3,1.4c2.6,0.6,4.7,1.2,7.2,0.6
		c-0.1,14.5-2.1,23.7-2.7,26.1C629.8,248.7,623.8,252,622,253z"/>
	<polygon class="st1" points="616,230.8 617.7,230.8 617.7,245.4 622.1,245.4 622.1,238.3 627.8,238.3 627.8,234.1 622.1,234.1 
		622.1,230.8 630.3,230.8 630.3,226.4 616,226.4 	"/>
</g>
<g>
	<path class="st1" d="M705.6,219.3l-0.5-0.2c-0.4-0.1-8.7-3.6-18.7-3.6c-10.3,0-18.4,3.5-18.8,3.6l-0.5,0.2v0.6c0,1.4,0,2.7,0.1,3.9
		l-0.1,0v0.6c0,18,2.8,28,2.9,28.4l0.2,0.6h0.7c8.6,0,14.9,4.4,15,4.5l0.5,0.3l0.5-0.3c0.1,0,7.2-4.5,15-4.5h0.7l0.2-0.6
		c0.1-0.4,2.9-10.4,2.9-28.4v-0.6l0,0c0-1.3,0-2.6,0-3.9V219.3z M701.1,251.7c-7,0.2-13.1,3.5-14.8,4.5c-1.7-1.1-7.3-4.3-14.9-4.5
		c-0.6-2.4-2.6-11.8-2.7-26.7c1.9-0.8,9-3.3,17.5-3.3c8.2,0,15.5,2.5,17.5,3.3C703.8,239.9,701.7,249.3,701.1,251.7z M668.8,220.5
		c1.9-0.8,9-3.3,17.5-3.3c8.2,0,15.5,2.5,17.5,3.3c0,0.9,0,1.8,0,2.6c-2.7-1-9.6-3.2-17.5-3.2c-8.1,0-14.8,2.1-17.5,3.1
		C668.8,222.2,668.8,221.4,668.8,220.5z"/>
	<polygon class="st1" points="681.4,247.9 685.8,247.9 685.8,240.9 691.5,240.9 691.5,236.7 685.8,236.7 685.8,233.4 694,233.4 
		694,229 679.8,229 679.8,233.4 681.4,233.4 	"/>
</g>
<g>
	<path class="st1" d="M769.9,218l-19.3-3.7l-19.3,3.7v0.7c0,2.2,0,4.3,0.1,6.3l-0.1,0.1v0.6c0,18,2.8,28,2.9,28.4l0.2,0.6h0.7
		c8.6,0,14.9,4.4,15,4.5l0.5,0.3l0.5-0.3c0.1,0,7.2-4.5,15-4.5h0.7l0.2-0.6c0.1-0.4,2.9-10.4,2.9-28.4V225l-0.1,0
		c0.1-2,0.1-4.1,0.1-6.3V218z M765.5,252.9c-7,0.2-13.1,3.5-14.8,4.5c-1.7-1.1-7.3-4.3-14.9-4.5c-0.6-2.4-2.6-11.8-2.7-26.7
		c1.9-0.8,9-3.3,17.5-3.3c8.2,0,15.5,2.5,17.5,3.3C768.1,241,766.1,250.4,765.5,252.9z"/>
	<polygon class="st1" points="745.8,249.1 750.1,249.1 750.1,242.1 755.9,242.1 755.9,237.9 750.1,237.9 750.1,234.6 758.3,234.6 
		758.3,230.2 744.1,230.2 744.1,234.6 745.8,234.6 	"/>
</g>
<g>
	<path class="st1" d="M834.3,218.4h-0.9c-11.8,0-17.7-5-17.8-5.1l-0.6-0.5l-0.6,0.5c-0.1,0.1-5.9,5.1-17.8,5.1h-0.9v0.9
		c0,2.4,0,4.7,0.1,6.9l-0.1,0v0.6c0,18,2.8,28,2.9,28.4l0.2,0.6h0.7c8.6,0,14.9,4.4,15,4.5l0.5,0.3l0.5-0.3c0.1,0,7.2-4.5,15-4.5
		h0.7l0.2-0.6c0.1-0.4,2.9-10.4,2.9-28.4v-0.6l-0.1,0c0.1-2.1,0.1-4.4,0.1-6.9V218.4z M815,258.5c-1.7-1.1-7.3-4.3-14.9-4.5
		c-0.6-2.4-2.6-11.8-2.7-26.7c1.9-0.8,9-3.3,17.5-3.3c8.2,0,15.5,2.5,17.5,3.3c-0.1,14.8-2.1,24.2-2.7,26.7
		C822.8,254.3,816.8,257.5,815,258.5z"/>
	<polygon class="st1" points="810.1,250.3 814.5,250.3 814.5,243.2 820.2,243.2 820.2,239 814.5,239 814.5,235.8 822.7,235.8 
		822.7,231.4 808.4,231.4 808.4,235.8 810.1,235.8 	"/>
</g>
<g>
	<path class="st1" d="M898.1,221.3c-0.4-0.1-8.7-3.6-18.7-3.6c-10.3,0-18.4,3.5-18.8,3.6l-0.5,0.2v0.6c0,18,2.8,28,2.9,28.4l0.2,0.6
		h0.7c8.6,0,14.9,4.4,15,4.5l0.5,0.3l0.5-0.3c0.1,0,7.2-4.5,15-4.5h0.7l0.2-0.6c0.1-0.4,2.9-10.4,2.9-28.4v-0.6L898.1,221.3z
		 M879.3,253.9c-1.7-1.1-7.3-4.3-14.9-4.5c-0.6-2.4-2.6-11.8-2.7-26.7c1.9-0.8,9-3.3,17.5-3.3c8.2,0,15.5,2.5,17.5,3.3
		c-0.1,14.8-2.1,24.2-2.7,26.7C887.2,249.6,881.1,252.9,879.3,253.9z"/>
	<polygon class="st1" points="872.8,231.1 874.4,231.1 874.4,245.7 878.8,245.7 878.8,238.6 884.6,238.6 884.6,234.4 878.8,234.4 
		878.8,231.1 887,231.1 887,226.7 872.8,226.7 	"/>
</g>
<g>
	<path class="st1" d="M190.1,217.5c-0.3-0.1-6.7-3.3-17.9-3.3c-11.1,0-18.8,3.1-19.1,3.2l-1.1,0.5v1.2v5.1v1.2v3.6v6.3
		c0,22.2,19.2,24.1,19.3,24.1l0.2,0l0.2,0c0.2,0,19.2-3.2,19.2-23.7v-6.3v-4v-1.1v-5.2V218L190.1,217.5z M172.3,216
		c10.9,0,17.1,3.1,17.1,3.1v4.4c-2.1-0.9-8-2.9-17.1-2.9c-9.4,0-16.3,2.2-18.4,3v-4.4C153.9,219.1,161.4,216,172.3,216z
		 M153.9,235.2v-6.3v-3.6c0,0,7.5-3.1,18.4-3.1c10.9,0,17.1,3.1,17.1,3.1v4v6.3c0,19.2-17.7,22-17.7,22S153.9,256,153.9,235.2z"/>
	<polygon class="st1" points="167.1,248.1 171.5,248.1 171.5,241.1 177.2,241.1 177.2,236.9 171.5,236.9 171.5,233.6 179.7,233.6 
		179.7,229.2 165.4,229.2 165.4,233.6 167.1,233.6 	"/>
</g>
<g>
	<path class="st1" d="M451,236.1c-0.6-1.6-1.2-3.1-1.2-5.9c0-2.3,1.6-4.2,1.6-4.2l0.4-0.4l-3.8-7.6h-0.6c-12.9,0-17.9-3.4-18-3.5
		L429,214l-0.5,0.4c0,0-5,3.5-18,3.5h-0.6l-3.8,7.6l0.4,0.4c0,0,1.6,2,1.6,4.2c0,2.8-0.6,4.3-1.2,5.9c-0.7,1.9-1.6,4-1.6,8.6
		c0,7.2,5.7,11.5,15.3,11.5c5.7,0,7.4,2.3,7.6,2.7l0.8,1.2l0.8-1.2c0.3-0.5,2-2.7,7.6-2.7c9.6,0,15.3-4.3,15.3-11.5
		C452.6,240.1,451.8,238,451,236.1z M437.4,254.4c-4.8,0-7.2,1.5-8.4,2.7c-1.1-1.1-3.6-2.7-8.4-2.7c-8.6,0-13.5-3.6-13.5-9.8
		c0-4.2,0.7-6.1,1.5-7.9c0.6-1.7,1.3-3.4,1.3-6.6c0-2.2-1.1-4-1.6-4.9l2.8-5.7c11-0.1,16.3-2.6,17.9-3.5c1.6,0.9,6.9,3.4,17.9,3.5
		l2.8,5.7c-0.6,0.8-1.6,2.7-1.6,4.9c0,3.2,0.7,4.9,1.3,6.6c0.7,1.8,1.5,3.7,1.5,7.9C450.8,250.8,445.9,254.4,437.4,254.4z"/>
	<polygon class="st1" points="422.2,232.2 423.9,232.2 423.9,246.8 428.3,246.8 428.3,239.7 434,239.7 434,235.5 428.3,235.5 
		428.3,232.2 436.5,232.2 436.5,227.8 422.2,227.8 	"/>
</g>
<g>
	<path class="st1" d="M124.3,213.1c0,0-1.8,0.7-6.6,0.7c-4.7,0-9.2-3.2-9.2-3.3l-1.1-0.8l-1,0.8c0,0-4.5,3.3-9.2,3.3
		c-4.9,0-6.9-0.7-6.9-0.8l-2.4-0.9l0,2.6v9.4l0,0v0.9v2.9c0,13.4,3.2,23.4,9.4,29.7c4.8,4.9,9.7,5.6,10,5.6l0.3,0l0.3-0.1
		c0.8-0.2,19-4.8,19-34.7v-1.8v-1.8v0v-0.9v-9.5v-2.8L124.3,213.1z M125,228.6c0,28.8-17.6,33-17.6,33s-17.9-2.4-17.9-33.5v-2.9
		c0,0,7-4.7,17.9-4.7c10.9,0,17.6,4.7,17.6,4.7V228.6z M125,223c-2.3-1.3-8.6-4.4-17.6-4.4c-9,0-15.5,3-17.8,4.4v-8.3
		c0,0,2.2,0.9,7.5,0.9c5.4,0,10.3-3.6,10.3-3.6s4.9,3.6,10.3,3.6c5.4,0,7.3-0.9,7.3-0.9V223z"/>
	<polygon class="st1" points="101,234.2 102.6,234.2 102.6,248.7 107,248.7 107,241.7 112.7,241.7 112.7,237.5 107,237.5 107,234.2 
		115.2,234.2 115.2,229.8 101,229.8 	"/>
</g>
<g>
	<polygon class="st1" points="216.3,218.1 216.3,220.3 236.8,216.8 255.6,220.2 255.6,218.1 236.8,214.6 	"/>
	<polygon class="st1" points="236.8,216.8 216.3,220.3 216.3,222.1 236.8,218.6 255.6,222.1 255.6,220.2 	"/>
	<polygon class="st1" points="236.8,214.6 255.6,218.1 255.6,216.3 236.8,212.8 216.3,216.3 216.3,218.1 	"/>
	<path class="st1" d="M237,221l-0.3-0.1l-0.3,0.1l-18.4,3.1l-1.5,0.3v1.5v9.9c0,11.3,5.1,18.9,9.4,23.2c4.6,4.7,9.2,6.7,9.4,6.7
		l0.7,0.3l0.7-0.4c0.8-0.4,18.7-9.4,18.7-29.5v-10.3v-1.5l-1.5-0.3L237,221z M253.8,236.1c0,19.2-17.7,27.9-17.7,27.9
		s-17.7-7.5-17.7-28.3v-9.9l18.4-3.1l17.1,3.1V236.1z"/>
	<polygon class="st1" points="229.9,234.7 231.5,234.7 231.5,249.3 235.9,249.3 235.9,242.2 241.6,242.2 241.6,238 235.9,238 
		235.9,234.7 244.1,234.7 244.1,230.3 229.9,230.3 	"/>
</g>
<g>
	<path class="st1" d="M382.9,227l0-11.2l-1,0.1c0,0-3.3,0.3-8.8-0.7c-5.5-1-8.4-2.3-8.5-2.3l-0.4-0.2l-0.4,0.2c0,0-2.2,1.3-7.7,2.3
		c-5.5,1-8.8,0.7-8.8,0.7l-1-0.1v5v6.2v5c0,19.5,17.4,28.6,17.6,28.7l0.4,0.2l0.4-0.2c0.2-0.1,18.2-9.2,18.2-28.7V227
		C382.9,227,382.9,227,382.9,227z M364.3,258.9c-2.5-1.4-16.2-10.1-16.2-26.9v-5v-4.3c1.4,0,4.3-0.1,8.3-0.8c4.5-0.8,7-1.8,7.9-2.3
		c1,0.4,3.8,1.4,8.5,2.3c4.1,0.7,6.9,0.8,8.3,0.8v4.3v5C381.1,248.8,366.9,257.5,364.3,258.9z M372.8,216.9c4.1,0.7,6.9,0.8,8.3,0.8
		v3.3c-1.3,0-4.1,0-8-0.8c-5.5-1-8.4-2.3-8.5-2.3l-0.4-0.2l-0.4,0.2c0,0-2.2,1.3-7.7,2.3c-4,0.7-6.7,0.8-8,0.8v-3.3
		c1.4,0,4.3-0.1,8.3-0.8c4.5-0.8,7-1.8,7.9-2.3C365.3,215,368.2,216,372.8,216.9z"/>
	<polygon class="st1" points="359.7,247.3 364.1,247.3 364.1,240.3 369.8,240.3 369.8,236.1 364.1,236.1 364.1,232.8 372.3,232.8 
		372.3,228.4 358,228.4 358,232.8 359.7,232.8 	"/>
</g>
<g>
	<path class="st2" d="M689.9,107.2V94.9c0,0-11.6-5.3-30-5.3v11.7L689.9,107.2z"/>
	<path class="st3" d="M658.1,101.3V89.6c-18.4,0-30,5.3-30,5.3v12.3L658.1,101.3z"/>
	<path class="st1" d="M690.2,93.2c-0.5-0.2-11.3-5.6-30.2-5.6c-18.8,0-31.7,5.3-32.2,5.5l-1.9,0.8v2v8.6v2v6v10.6
		c0,19.5,8.9,29.5,16.3,34.6c8,5.4,16.1,6.2,16.4,6.2l0.4,0l0.4-0.1c0.3-0.1,8.3-1.3,16.2-6.9c7.4-5.2,16.3-15.1,16.3-33.2v-10.6
		v-6.7v-1.8v-8.8V94L690.2,93.2z M688.9,103.2c-3.5-1.4-13.4-4.9-28.5-5v-7.6c18.1,0.1,28.5,5.3,28.5,5.3V103.2z M657.4,90.7v7.6
		c-14.5,0.4-25.1,3.8-28.5,5v-7.4C628.9,95.9,640.4,91.1,657.4,90.7z"/>
	<path class="st4" d="M648.4,114h24.1v7.4h-13.9v5.6h9.7v7.1h-9.7V146h-7.4v-24.6h-2.8V114z"/>
</g>
<g>
	<path class="st1" d="M300.4,79.9c0,84.6,30,91.7,30,91.7s30-7.7,30-91.7c0,0-10.5-3.9-28.8-3.9C313.1,76,300.4,79.9,300.4,79.9z"/>
	<path class="st2" d="M300.4,83.9c0,84.6,30,91.7,30,91.7s30-7.7,30-91.7c0,0-10.5-3.9-28.8-3.9C313.1,80,300.4,83.9,300.4,83.9z"/>
	<path class="st1" d="M319.1,107.2h24.1v7.4h-13.9v5.6h9.7v7.1h-9.7v11.9h-7.4v-24.6h-2.8V107.2z"/>
</g>
<g>
	<path class="st2" d="M431,165.7c0,0,32.8,6.3,45.2-27.8l6.6-18.2c0,0-9.6-9.8-28.9-16.8c-19.3-7-34.1-6.2-34.1-6.2l-6.4,17.5
		C399.9,151.2,431,165.7,431,165.7z"/>
	<path class="st3" d="M438.2,154.1c0,0,29.2-16.2,16.7-50.4l-6.6-18.2c0,0-13.6-1.3-33,5.7c-19.3,7-30.1,17.2-30.1,17.2l6.4,17.5
		C405.1,163,438.2,154.1,438.2,154.1z"/>
	<path class="st1" d="M419.8,96.7l-6.4,17.5c-6.5,17.8-2.6,30.4,3.1,38.7c11.4,4,21.7,1.2,21.7,1.2s29.2-16.2,16.7-50.4l-0.2-0.6
		c-0.3-0.1-0.5-0.2-0.8-0.3C434.6,95.8,419.8,96.7,419.8,96.7z"/>
	<path class="st4" d="M423.9,113.7h19.5v6h-11.2v4.5h7.9v5.8h-7.9v9.7h-6v-19.9h-2.3V113.7z"/>
</g>
<g>
	<path class="st3" d="M596.1,124.3c0.8,26.6-20.9,48.4-47.5,47.5c-24.1-0.8-43.7-20.4-44.5-44.5c-0.8-26.6,20.9-48.4,47.5-47.5
		C575.7,80.6,595.3,100.2,596.1,124.3z"/>
	<path class="st2" d="M527.2,115.7v-15.5l1.5,0.6c0,0,2.6,1,8.9,1c6.2,0,12-4.2,12-4.2l0.6-0.5l0.6,0.5c0.1,0,5.8,4.2,12,4.2
		c6.2,0,8.5-1,8.5-1l1.5-0.7l0,1.7v13.9H527.2z"/>
	<path class="st4" d="M550.1,160.6c-0.9-0.1-22.9-3.5-22.9-42.3V114l0.5-0.3c0.4-0.2,9-5.9,22.6-5.9c13.6,0,21.9,5.7,22.3,5.9
		l0.5,0.3v4.9c0,18.6-6,28.9-11.1,34.3c-5.6,5.9-11.1,7.2-11.4,7.3l-0.2,0L550.1,160.6z"/>
	<path class="st1" d="M571,99.9c0,0-2.2,0.9-8.1,0.9c-5.8,0-11.3-4-11.4-4l-1.3-1l-1.3,1c-0.1,0.1-5.6,4-11.4,4
		c-6,0-8.5-0.9-8.5-0.9l-3-1.2l0,19.6c0,16.5,3.9,28.8,11.6,36.5c5.9,6,12,6.8,12.2,6.9l0.4,0.1l0.4-0.1c0.2-0.1,6.1-1.5,11.9-7.6
		c5.2-5.5,11.4-16,11.4-35V98.5L571,99.9z M537.6,102.9c6.6,0,12.7-4.4,12.7-4.4s6,4.4,12.7,4.4s9-1.1,9-1.1v10.2
		c-2.9-1.6-10.6-5.4-21.6-5.4c-11.1,0-19,3.7-21.9,5.4v-10.2C528.3,101.9,530.9,102.9,537.6,102.9z M571.9,119
		c0,35.4-21.6,40.5-21.6,40.5s-21.9-2.9-21.9-41.2v-3.6c0,0,8.6-5.7,21.9-5.7c13.4,0,21.6,5.7,21.6,5.7V119z"/>
	<path class="st1" d="M542.3,120.4h17.5v5.4h-10.1v4h7v5.2h-7v8.7h-5.4v-17.9h-2V120.4z"/>
</g>
<g>
	<polygon class="st3" points="148.6,147.5 145,103.6 95.1,103.6 91.5,147.5 119.7,164.6 	"/>
	<polygon class="st2" points="144.1,100.9 96,100.9 110.8,89.8 111.1,95.8 131.3,87 131.3,96.3 144,89.8 	"/>
	<path class="st4" d="M110,117.1h22.2v6.8h-12.8v5.1h8.9v6.5h-8.9v11h-6.8v-22.6H110V117.1z"/>
</g>
<g>
	<circle class="st1" cx="226.7" cy="125.8" r="44"/>
	<path class="st3" d="M226.8,158c0,0,20.7-4.9,20.7-38.7v-4.1c0,0-7.9-5.5-20.7-5.5s-21,5.5-21,5.5v3.5
		C205.8,155.2,226.8,158,226.8,158z"/>
	<path class="st2" d="M226.8,107.6c10.6,0,17.9,3.6,20.7,5.1V99.4c0,0-2.3,2.4-8.6,2.4s-12.1-5.6-12.1-5.6s-5.8,5.6-12.1,5.6
		c-6.3,0-8.9-2.4-8.9-2.4v13.2C208.6,111.1,216.2,107.6,226.8,107.6z"/>
	<path class="st5" d="M219.2,120.6h16.7v5.2h-9.6v3.9h6.7v4.9h-6.7v8.3h-5.2v-17.1h-1.9V120.6z"/>
</g>
<g>
	<path class="st1" d="M728.5,94.4c0,31.8,5.1,52,5.1,52c15.6,11,27.5,15.1,27.5,15.1s14.3-5.8,27.5-15.1c0,0,5.1-20.8,5.1-52
		c0,0-11.4-4.2-31.4-4.2S728.5,94.4,728.5,94.4z"/>
	<path class="st5" d="M748.9,107.4h26.2v8.1H760v6h10.5v7.7H760v12.9h-8.1v-26.7h-3V107.4z"/>
</g>
<g>
	<polygon class="st2" points="896.9,148.5 899.2,125.3 897.5,122.7 835,122.7 833.4,125.3 835.6,148.5 865.8,163.3 	"/>
	<path class="st3" d="M899.2,125.2v-5.6c0-24.1-3.4-31.3-3.4-31.3l-29.5,5.4l-29.5-5.4c0,0-3.4,7.1-3.4,31.3v5.6H899.2z"/>
	<path class="st4" d="M853.9,106h27.3v8.4h-15.7v6.3h11v8.1h-11v13.5h-8.4v-27.9h-3.2V106z"/>
</g>
</svg>
