<?xml version="1.0" encoding="utf-8"?>
<!-- Generator: Adobe Illustrator 19.2.1, SVG Export Plug-In . SVG Version: 6.00 Build 0)  -->
<svg version="1.1" id="Layer_1" xmlns="http://www.w3.org/2000/svg" xmlns:xlink="http://www.w3.org/1999/xlink" x="0px" y="0px"
	 width="660px" height="330px" viewBox="0 0 660 330" style="enable-background:new 0 0 660 330;" xml:space="preserve">
<style type="text/css">
	.st0{fill-rule:evenodd;clip-rule:evenodd;fill:#2BA0DA;}
	.st1{fill:#212C33;}
	.st2{fill:#FFFFFF;}
	.st3{fill:#F2F1DE;}
</style>
<path class="st0" d="M0,0h660v330H0V0z"/>
<path class="st1" d="M147.3,132.7c0,29.2,4.7,47.8,4.7,47.8c14.4,10.2,25.3,13.9,25.3,13.9s13.2-5.3,25.3-13.9
	c0,0,4.7-19.1,4.7-47.8c0,0-10.5-3.9-28.9-3.9S147.3,132.7,147.3,132.7z"/>
<path class="st2" d="M166.1,144.7h25.1v7.4h-13.9v5.6h9.7v7.1h-9.7v11.9h-7.4v-24.6h-3.8V144.7z"/>
<path class="st3" d="M241.8,144.7h25.1v7.4H253v5.6h9.7v7.1H253v11.9h-7.4v-24.6h-3.8V144.7z M287.4,144.7h6.5l11.7,32h-7.9
	l-2.8-8.1h-8.4l-2.9,8.1h-7.7L287.4,144.7z M288.5,162.7h4.3l-2.3-7L288.5,162.7z M340.3,176.6l-13.7-20.3v20.3h-7.4v-32h8
	l13.6,20.2v-20.2h7.4v32H340.3z M364,144.7h16.5c6.1,0.1,11.1,5.7,11.1,11.9c0,6.2-5,11.2-11.1,11.2h-5.3v8.8h-7.5v-24.6H364V144.7z
	 M384.2,156.1c0-2.2-1.8-4-3.7-4h-5.3v8.3h5.3C382.5,160.4,384.2,158.2,384.2,156.1z M415.1,144.7v32h-7.5v-32H415.1z M431.8,160.6
	c0-9,7.4-16.3,16-16.3c4.5,0,8.6,2,11.5,5l-5.3,5c-1.7-1.8-3.9-2.8-6.3-2.8c-4.8,0-8.8,4.1-8.8,9.1c0,5,4,9.1,8.8,9.1
	c2.7,0,5.2-1.2,6.8-3.5l5.8,4.4c-3.2,4-7.8,6.3-12.6,6.3C439,176.9,431.8,169.6,431.8,160.6z M488.2,176.9c-0.1,0-0.2,0-0.2,0
	c-7.8,0-12.7-3.9-13.3-10.9l8.4,0.1c0,2.7,2,3.7,5,3.7c2.5,0,4.7-0.7,4.8-2.9c0-3.5-6.7-3-10.8-4.7c-3.6-1.2-6.2-4.5-6.2-8.2
	c0-5.6,5.4-9.7,12.3-9.7c6.8,0,12,3.5,12.7,9.5l-8.8,0c0,0-0.1-2-3.9-2.1c-1.4,0-3.6,0.7-3.7,2.3c0,2,2.8,2.2,5.6,2.9
	c6.3,1.6,11.2,3.5,11.4,9.9C501.2,172.9,495.6,176.9,488.2,176.9z"/>
</svg>
