<?xml version="1.0" encoding="utf-8"?>
<!-- Generator: Adobe Illustrator 19.2.1, SVG Export Plug-In . SVG Version: 6.00 Build 0)  -->
<svg version="1.1" id="Layer_1" xmlns="http://www.w3.org/2000/svg" xmlns:xlink="http://www.w3.org/1999/xlink" x="0px" y="0px"
	 width="330px" height="330px" viewBox="0 0 330 330" style="enable-background:new 0 0 330 330;" xml:space="preserve">
<style type="text/css">
	.st0{fill-rule:evenodd;clip-rule:evenodd;fill:#0E3450;}
	.st1{fill:#F5FCFF;}
</style>
<path class="st0" d="M0,0h330v330H0V0z"/>
<path class="st1" d="M222.8,142.3c6,0,6.7,9.3,0,9.3C216.1,151.6,216.7,142.3,222.8,142.3z M280.1,178.5c-1.2,4.2-5.2,7.7-11.1,7.9
	c-9.8,0.3-12.6-4.2-12.6-4.2s-4.6,3.9-12.5,3.9c-4.9,0-8.3-1.5-10.5-3.9c-2,1.5-6,3.9-12.1,3.9c-3.9,0-6.8-1.7-8.2-4.2
	c-2.6,1.5-11.6,5.9-23.2,4.2c-3.5-0.5-5.8-1.7-7.2-2.8c-0.3,2.6-0.6,5.2-1,7.8c-0.6,5.1-3,10-7,11.2c-4.8,1.5-8.6,0.8-8.6,0.8l1-7.8
	c3.1,0,3.8-1.8,4-3.8c0.2-1.4,0.5-4.1,0.9-7.4c-2.3,1.1-5.1,1.9-8,1.9c-5.9,0-10.3-1.2-10.5-8.3c-0.1-3.4,0.3-6.6,1.2-8.5
	c1.3-2.6,0.4-2.8,0.4-2.8c-2.8-1.5-9.7,4.7-10.9,13.9c-0.2,1.6-0.7,5.6-0.7,5.6l-10.6,0c0,0,0-0.7,0-2.2c-2.3,1.2-5.5,2.2-9.5,2.2
	c-3,0-5.6-1-7.3-2.6c-3.2,1.6-7.2,2.6-10.1,2.6c-4.7,0-8.9-0.6-10.3-5.7c-1.8-6.3,1.5-13.5,8.8-18.7c8.5-6.1,22.7-3.4,22.7-3.4
	s-1,4.7-1.7,10.3c-0.7,5.6-0.9,9.2,2.5,10c2.3,0.5,4.1-0.5,5.4-1.6c0.2-1.5,0.3-3.3,0.6-5.2c1.3-10.7,2.2-13.2,2.2-13.2l10.4-1.1
	l-0.7,5.5c0,0,4.6-6,13.3-6.1c5.5-0.1,8.3,3.1,6.3,10c-1.8,5.8-3.7,11,0.4,11.7c3.1,0.5,5.4-0.3,6.8-1.4c1.1-9,2.3-18.5,2.3-18.5
	l10.7-1.1c0,0-0.1,1-0.3,2.7c1.5-1.2,4.2-2.7,7.9-2.7c6.3,0,13.1,3.8,12,13.1c-0.4,3.4-1.4,6-2.8,8c5.3-0.3,8.2-1.7,9.5-2.6
	c0.4-10.2,2.4-17.3,2.4-17.3l10.4-1.1c0,0-1.7,5.8-2.2,11.8c-0.5,6.1,0,8.9,3.1,9.2c2,0.2,3.7-0.5,4.9-1.4c-0.4-1.7-0.4-3.6-0.2-5.5
	c0.8-6.4,5.8-13.9,15.4-14.3c9.7-0.4,11.2,5.2,11.2,5.2s-1.3,1.5-4.1,3.3c-2.8,1.8-3.6,1.7-3.6,1.7s-1.2-2-4.3-1.4
	c-6.1,1.1-7.1,11,0,11.3c4.6,0.2,8.3-2.3,10.4-4.2c1.2-1.1,2.3-1.2,3.1-0.1c0.9,1.1,2.2,2.5,4,3.8c2.6,1.8,7,2.6,8,0.7
	c0.7-1.3-1.5-1.9-2.5-2.3c-4.3-1.6-6.1-2.9-7-5.8c-1.4-4.7,2-12.1,10.5-12c7.8,0,9.3,4.7,9.3,4.7l-5.6,4.4c0,0-0.5-1.1-2-1.6
	c-1.3-0.5-3.4-0.6-3.9,0.6c-0.6,1.2,0.4,2.5,3.2,3.3C279.3,170.6,281.3,173.9,280.1,178.5z M110.5,176.8c1.3-0.2,2.5-0.5,3.6-0.9
	c0.4-7.1,1.6-11.6,1.6-11.6s-6.8-0.1-9.4,6.2C104.6,174.4,105.7,177.4,110.5,176.8z M184.6,171.6c-0.9,7.3,9.6,6.7,10.4,0
	C195.8,164.9,185.4,165.1,184.6,171.6z M95.6,159.6h-9.7c0.5-3.3,0.9-6.3,1.2-8.8c9.3,1.6,12.9,2,20.3-1.1
	c8.4-3.5,9.1-13.7,9.1-13.7h-10.5c0,0,0.7,3.6-3.9,5.4c-5,2-11.4-0.2-15.7-0.9c-15.1-2.3-19.5-3.6-26.4-1.6
	c-5.3,1.5-10.4,5.7-11.2,12c-0.9,7.1,2.5,12.7,8.1,14.4c9,2.8,14.4-2.8,14.4-2.8l-1.4-5.4c0,0-6.4,3.3-9.5,0.1
	c-3.1-3.1-2.3-6.9,0.4-8.6c3-1.9,8.6-0.7,15,0.3c-0.8,6.2-2,15.9-3.5,27.4c-1.2,9.5-5,15.4-9.5,16.2c-5.9,1-8-4-7.1-7.7
	c0.9-3.5,3.6-3.9,3.6-3.9l-1.5-7.1c0,0-3.7,0.5-7.2,4.9c-4.3,5.5-4.1,16.7,2.7,20.9c7.2,4.4,16.8,2.5,22.3-3.7
	c6.2-6.9,7-14.5,8.1-22.1c0.3-1.8,0.5-3.6,0.8-5.3h8.9L95.6,159.6z"/>
</svg>
