<?xml version="1.0" encoding="utf-8"?>
<!-- Generator: Adobe Illustrator 19.2.1, SVG Export Plug-In . SVG Version: 6.00 Build 0)  -->
<svg version="1.1" id="Layer_1" xmlns="http://www.w3.org/2000/svg" xmlns:xlink="http://www.w3.org/1999/xlink" x="0px" y="0px"
	 width="330px" height="330px" viewBox="0 0 330 330" style="enable-background:new 0 0 330 330;" xml:space="preserve">
<style type="text/css">
	.st0{fill-rule:evenodd;clip-rule:evenodd;fill:#EB4F5F;}
	.st1{fill:#F4F5E0;}
</style>
<path class="st0" d="M0,0h330v330H0V0z"/>
<path class="st1" d="M66.9,154.4c-0.7,0.6-1.6,4.7-1.7,10.8c9.3-1.2,16.6-6,19.7-2.6c3.1,3.4,0.2,9.2-6.4,11.1
	c-3.4,1-8,1.9-12.6,2.2c0.2,1.6,0.5,3.3,0.8,5c1,5.2-0.4,11.4-5.4,10.4c-4.5-0.9-6.6-5.6-7.7-16c0,0,0,0,0,0
	c-7.6-1.7-11.8-10.6-5.5-10.2c1.2,0.1,2.8,0.3,5,0.5c0.3-10.8,3.4-20.2,4.9-22.1c2.3-2.9,13.7-4.2,21.1-5.6c7.5-1.5,8.8-3.5,11-4.2
	c2.2-0.6,6,2.3,6,5.4c0,3.1-2.3,7.5-9.1,10.6S68.2,153.3,66.9,154.4z M195.3,170.2c0,8.5-3.6,13.7-8.9,15.4c-6,1.9-8.6-2.5-8.3-4.8
	c0.4-3.5,7.4-1.8,7.5-9.8c0-2.8-2.5-5.2-6.2-2.2c-1.7,1.4-2.7,3.1-3.1,4.3c-0.1,14.3-0.7,18-2.3,23.8c-2.1,8.1-5.2,10.6-10.4,10.6
	c-5.2,0-1.5-11.2,0-19.5c0.2-1.4,0.4-2.7,0.5-4c-2,1.4-4.9,3-8.6,3.2c-8,0.6-10.4-5.4-10.2-11c0.2-4-0.2-8.5-2.7-7.4
	c-2.5,1.1-5.4,2.9-5.8,10.3c-0.4,7.5-0.6,7.9-5.2,8c-2.1,0.1-3.6-0.9-4.6-3c-2.1,1.5-5,3.2-8.2,3.3c-4.4,0.1-7.2-2.3-8.7-6.4
	c-2.1,2.7-6.1,7.1-10.2,7.9c-6,1.2-12-2.1-11.8-12.7c0.2-10.6,9.5-18.9,14.3-19c3.1-0.1,6,2.2,7.8,3.8c0.7-2.1,1.5-3.5,2.4-3.7
	c4.6-1,6.5,4.3,5.9,8.5c-0.6,4.2-1,12.1,2.8,13.1c1.5,0.4,3-0.5,4.4-1.8c-0.1-1.5-0.1-3.1,0-4.9c0.4-10.5,4-15.3,8.1-15.9
	c4.1-0.6,4,3.7,3.7,6.7c0,0,5.4-9.6,14.2-5c7.6,4,2.3,15.2,5.6,18.6c1.8,1.9,4.6,0.4,6.6-1.2c-0.2-2.2-0.4-4.3-0.4-6.4
	c0-5.6,3.1-11.4,7.7-12.1c2.4-0.3,3.7,1.4,4.3,3.9c2-1.4,5-2.9,8.6-3.1C191.4,157.4,195.3,164.8,195.3,170.2z M103.7,166.4
	c-3.7,0-8.3,8.9-5.2,11c3.1,2.1,6.6-1.8,7.5-4.3C106.8,170.6,107,166.4,103.7,166.4z M210.4,151c8.6-1,6.4-13.1,0-12.5
	C201.4,139.3,203.4,151.8,210.4,151z M259.8,168.8c-3.1-0.5-4.5-2.7-3.8-3.9c0.6-1.3,2.8-1.2,4.2-0.7c1.6,0.6,3.5,2.9,6.1,2.1
	c1.7-0.5,2.1-4.1-0.3-6.8c-1.2-1.4-3.9-3.3-7.7-3.3c-9,0-11.4,5.9-11.1,10.1c0.2,3.3,1.6,6.7,8.2,8c2.8,0.6,3.5,2.4,2.8,3.8
	c-1,2-6.1,1-8.7-1.1c-4.3-3.5-7-3-8.6-1.7c-2,1.7-5.2,2.7-8.6,2.5c-7.6-0.4-6.8-11.1-0.4-12.7c4-1,4,1.3,7.8,0.8
	c1.1-0.2,3-0.9,3.1-2.2c0.2-2.9-3.6-7.8-10.7-7.5c-10.2,0.4-14.6,8.8-15.5,15.6c-0.2,1.2-0.2,2.5-0.1,3.7c-1.1,1-2.7,1.9-5,1.5
	c-3.8-0.6,2.2-17.3-0.2-19.8c-2.4-2.5-6.3-2.5-8.4,0c-3,3.6-3.7,9.4-3.5,16.4c0.2,7.1,2.8,13.6,9.7,13.5c5.1,0,8.4-2.2,10.4-4.1
	c2.3,2.6,6,4.4,11.3,4.4c5.3,0,9.1-1.6,11.3-2.9c1.3-0.7,1-0.3,2.6,0.7c2,1.2,5.5,2.6,11.1,2.4c6.2-0.2,10.5-4,11.7-8.4
	C269,174.4,266.8,170,259.8,168.8z"/>
</svg>
