<?xml version="1.0" encoding="utf-8"?>
<!-- Generator: Adobe Illustrator 19.2.1, SVG Export Plug-In . SVG Version: 6.00 Build 0)  -->
<svg version="1.1" id="Layer_1" xmlns="http://www.w3.org/2000/svg" xmlns:xlink="http://www.w3.org/1999/xlink" x="0px" y="0px"
	 width="330px" height="330px" viewBox="0 0 330 330" style="enable-background:new 0 0 330 330;" xml:space="preserve">
<style type="text/css">
	.st0{fill-rule:evenodd;clip-rule:evenodd;fill:#F5FCFF;}
	.st1{fill:#2BA0DA;}
</style>
<path class="st0" d="M0,0h330v330H0V0z"/>
<path class="st1" d="M223.9,143.3c-3-2.7-6.7-4.9-11.2-6.8v-15.6l6.5-1.4v1l13.5-2.9l-11.4-2.1v-1.8l-8.6-1.6v-1h-3.9V135
	c-0.7-0.2-1.3-0.5-2-0.7c-11-3.5-25.5-5.4-42.9-5.4v-18.6l6.5-1.4v1L184,107l-11.4-2.1V103l-8.6-1.6v-1h-3.9v28.4
	c-17.2,0.2-31.5,1.8-42.3,4.8c-1.2,0.3-2.4,0.7-3.5,1.1v-13.8l6.5-1.4v1l13.5-2.9l-11.4-2.1v-1.8l-8.6-1.6v-1h-3.9v25
	c-3.8,1.5-7,3.3-9.6,5.4c-0.9,0.7-3.8,2.9-4,7.2c0,0.2,0,0.4,0,0.6c0,0.1,0,0.2,0,0.2c0,0,0,0,0,0c0.1,1,0.1,1.7,7.5,30
	c3.6,13.7,7.2,27.3,7.2,27.4c0.5,1.9,1.7,3.4,3.5,4.3l44.3,22.7c1,0.5,2,0.7,3.1,0.7c1.1,0,2.1-0.2,3.1-0.7l44.3-22.7
	c1.7-0.9,3-2.4,3.4-4.3c0-0.1,3.7-13.6,7.2-27c7.5-28,7.5-28.1,7.5-29.3c0-0.5-0.1-1.1-0.2-1.6C227.1,146.3,225.2,144.5,223.9,143.3
	z M206.7,205.2l-44.3,22.7L118,205.2c0,0-14.4-54.4-14.5-56.1c0,0,0,0,0,0c0-0.9,0.4-1.5,1.4-2.2c3.6-2.8,16.1-11.2,58-11.2
	c40.2,0,52.7,9.4,56.5,12.8c0.9,0.8,1.5,1.6,1.7,2.3C221.2,151.4,206.7,205.2,206.7,205.2z M131,154.8l-7.3-12.8
	c8.6-2,20.8-3.6,37-3.7l0.3,13.5C147.3,152,137.7,153.2,131,154.8z M161.2,163.4c-7.9,0.1-14,0.7-18.6,1.5l-4.9-8.6
	c5.9-1,13.5-1.8,23.3-1.9L161.2,163.4z M186.3,156.1l-4.9,8.6c-4.6-0.8-10.3-1.3-17.5-1.3l0.2-9
	C173.3,154.4,180.5,155.1,186.3,156.1z M189.9,156.8c5.5,1.2,9.4,2.7,12.2,4.2c-4.5,1.8-10,3.4-16.1,4.7c-0.7-0.2-1.4-0.3-2.2-0.5
	L189.9,156.8z M134.1,157l6.1,8.4c-0.2,0.1-0.5,0.1-0.7,0.2c-6.2-1.3-11.8-3-16.4-4.9C125.5,159.4,129,158.1,134.1,157z
	 M163.9,165.3c7,0.1,12.6,0.6,17.1,1.3c-5.3,0.8-11.1,1.4-17.1,1.4L163.9,165.3z M216.4,151.7c0,1.8-4,4.9-10.8,7.9
	c-2.2-1.3-5.3-2.8-9.7-4l8.3-11.6C212.2,146.6,216.4,149.6,216.4,151.7z M128.1,155.6c-4,1.2-6.8,2.4-8.7,3.5
	c-7-3.3-11.2-6.7-11.2-9.1c0-1.9,3.6-4.5,11-6.7L128.1,155.6z M193,154.7c-6.7-1.6-16-2.9-28.8-2.9l0.3-13.5
	c14.7,0.1,26.7,1.9,35.4,4.3L193,154.7z M161.3,165.3l0.1,2.7c-6-0.1-11.7-0.7-17-1.6C148.7,165.8,154.3,165.3,161.3,165.3z"/>
</svg>
