<?xml version="1.0" encoding="UTF-8" standalone="no"?>
<svg width="329px" height="329px" viewBox="0 0 329 329" version="1.1" xmlns="http://www.w3.org/2000/svg" xmlns:xlink="http://www.w3.org/1999/xlink">
    <!-- Generator: Sketch 39.1 (31720) - http://www.bohemiancoding.com/sketch -->
    <title>thunderstorm</title>
    <desc>Created with Sketch.</desc>
    <defs></defs>
    <g id="Life360" stroke="none" stroke-width="1" fill="none" fill-rule="evenodd">
        <g id="Desktop-HD-Copy-2" transform="translate(-65.000000, -2150.000000)">
            <g id="Visual-Design-Roundup" transform="translate(1.000000, 1723.000000)">
                <g id="thunderstorm" transform="translate(64.000000, 427.000000)">
                    <rect id="Rectangle-4-Copy" fill="#4C94FF" x="0" y="0" width="329" height="329"></rect>
                    <path d="M152.025089,165.292969 L127.576689,217.293267 C126.072555,220.492471 127.723424,222.970908 131.253748,222.829424 L151.445843,222.020186 C154.98076,221.878517 156.565297,224.334368 154.995715,227.483992 L132.25691,273.113132 C124.375319,288.928838 127.61584,291.136909 139.486842,278.053788 L201.89996,209.267816 C204.869099,205.995505 203.696903,203.342773 199.272301,203.342773 L181.233926,203.342773 C176.813571,203.342773 175.55587,200.61507 178.42702,197.247641 L210.185242,160 L152.025089,165.292969 Z" id="Path-3" fill="#FFBE4E"></path>
                    <path d="M87.9475018,177.979687 C131.285002,177.979688 193.753026,178.379687 237.988545,178.379687 C296.23501,178.379687 293.124101,94.8203125 237.988549,94.8203125 C216.975781,94.8203125 209.886559,103.840625 209.886559,103.840625 C209.886559,103.840625 198.424054,72 161.550623,72 C105.220941,72 107.531878,128.742187 107.531878,128.742187 C107.531878,128.742187 98.8146893,121.028125 83.085002,121.028125 C49.4318765,121.028125 40.2803138,177.979687 87.9475018,177.979687 Z" id="Path-Copy-3" fill="#FFFFFF"></path>
                </g>
            </g>
        </g>
    </g>
</svg>