<svg id="Layer_1" data-name="Layer 1" xmlns="http://www.w3.org/2000/svg" viewBox="0 0 736.54 75.85"><defs><style>.cls-1,.cls-2,.cls-4{fill:#fff;}.cls-2{fill-opacity:0.7;}.cls-3{fill:#ffbe4e;}.cls-4,.cls-5{opacity:0.7;}.cls-4{isolation:isolate;}.cls-6{fill:none;stroke:#fff;stroke-linecap:round;stroke-width:3px;}</style></defs><title>weather-icons</title><g id="Life360"><g id="Desktop-HD-Copy-2"><g id="Weather"><g id="ICONS"><g id="rain-copy"><path id="Path-Copy-3" class="cls-1" d="M119.3,33.12c13.54,0,33.06.13,46.89.13,18.2,0,17.23-26.11,0-26.11-6.57,0-8.78,2.82-8.78,2.82A16.06,16.06,0,0,0,142.3,0c-17.6,0-16.88,17.73-16.88,17.73a12.08,12.08,0,0,0-7.64-2.41C107.26,15.32,104.4,33.12,119.3,33.12Z" transform="translate(-0.93)"/><path id="Combined-Shape" class="cls-2" d="M125.26,47.72a4.52,4.52,0,0,0,6.18-1.65c1.62-2.8,0-9.06,0-9.06s-6.22,1.74-7.84,4.54A4.52,4.52,0,0,0,125.26,47.72ZM129.64,63a4.52,4.52,0,0,0,6.18-1.65c1.62-2.8,0-9.06,0-9.06S129.6,54,128,56.79A4.52,4.52,0,0,0,129.64,63Zm9.63-15.25a4.52,4.52,0,0,0,6.18-1.65c1.62-2.8,0-9.06,0-9.06s-6.22,1.74-7.84,4.54A4.52,4.52,0,0,0,139.26,47.72Zm14,0a4.52,4.52,0,0,0,6.18-1.65c1.62-2.8,0-9.06,0-9.06s-6.22,1.74-7.84,4.54A4.52,4.52,0,0,0,153.26,47.72ZM143.64,63a4.52,4.52,0,0,0,6.18-1.65c1.62-2.8,0-9.06,0-9.06S143.6,54,142,56.79A4.52,4.52,0,0,0,143.64,63Z" transform="translate(-0.93)"/></g><g id="thunderstorm"><path id="Path-3" class="cls-3" d="M697.32,29.15,689.68,45.4a1.12,1.12,0,0,0,1.15,1.73l6.31-.25c1.1,0,1.6.72,1.1,1.72l-7.1,14.24c-2.46,4.94-1.45,5.63,2.26,1.55L712.9,42.9c.93-1,.56-1.85-.81-1.85h-5.65c-1.38,0-1.77-.85-.88-1.9L715.5,27.5Z" transform="translate(-0.93)"/><path id="Path-Copy-3-2" data-name="Path-Copy-3" class="cls-1" d="M677.3,33.12c13.54,0,33.06.13,46.89.13,18.2,0,17.23-26.11,0-26.11-6.57,0-8.78,2.82-8.78,2.82A16.06,16.06,0,0,0,700.3,0c-17.6,0-16.88,17.73-16.88,17.73a12.08,12.08,0,0,0-7.64-2.41C665.26,15.32,662.4,33.12,677.3,33.12Z" transform="translate(-0.93)"/></g><g id="partially-cloudy-copy-10"><path id="Combined-Shape-2" data-name="Combined-Shape" class="cls-3" d="M273.44,52.58c-1.69,2.6-1.08,7.33-3.45,9.25s-6.89.34-9.77,1.45-5.12,5.3-8.23,5.46-5.69-3.75-8.76-4.58-7.35,1.22-9.87-.42-2.48-6.47-4.39-8.84-6.64-3.27-7.75-6.14S223,42.13,222.87,39s-3.46-6.45-2.64-9.51,5.42-4.4,7-6.92,1.08-7.33,3.45-9.25,6.9-.34,9.78-1.45,5.12-5.3,8.22-5.46,5.7,3.76,8.76,4.58,7.36-1.22,9.88.42,2.47,6.47,4.39,8.84,6.64,3.27,7.75,6.14-1.81,6.63-1.65,9.74,3.47,6.45,2.65,9.51S275.08,50.05,273.44,52.58Z" transform="translate(-0.93)"/><path id="Path-Copy-2" class="cls-1" d="M240.3,55.12c13.54,0,33.06.13,46.89.13,18.2,0,17.23-26.11,0-26.11-6.57,0-8.78,2.82-8.78,2.82a16.06,16.06,0,0,0-15.1-10c-17.6,0-16.88,17.73-16.88,17.73a12.08,12.08,0,0,0-7.64-2.41C228.26,37.32,225.4,55.12,240.3,55.12Z" transform="translate(-0.93)"/></g><path id="Combined-Shape-3" data-name="Combined-Shape" class="cls-3" d="M54.28,51.84c-1.69,2.6-1.08,7.33-3.45,9.25s-6.89.34-9.77,1.45-5.12,5.3-8.23,5.46-5.69-3.75-8.76-4.58S16.73,64.64,14.2,63s-2.48-6.47-4.39-8.84S3.17,50.89,2.07,48s1.81-6.63,1.64-9.74S.24,31.82,1.06,28.77s5.42-4.4,7-6.92,1.08-7.33,3.45-9.25,6.9-.34,9.78-1.45,5.12-5.3,8.22-5.46,5.7,3.76,8.76,4.58,7.36-1.22,9.88.42,2.47,6.47,4.39,8.84,6.64,3.27,7.75,6.14-1.81,6.63-1.65,9.74,3.47,6.45,2.65,9.51S55.92,49.31,54.28,51.84Z" transform="translate(-0.93)"/><g id="partially-cloudy-copy"><path id="Path-Copy-2-2" data-name="Path-Copy-2" class="cls-1" d="M466.3,51.12c13.54,0,33.06.13,46.89.13,18.2,0,17.23-26.11,0-26.11-6.57,0-8.78,2.82-8.78,2.82a16.06,16.06,0,0,0-15.1-10c-17.6,0-16.88,17.73-16.88,17.73a12.08,12.08,0,0,0-7.64-2.41C454.26,33.32,451.4,51.12,466.3,51.12Z" transform="translate(-0.93)"/><path id="Path-Copy-4" class="cls-4" d="M487.42,32.5C478.63,36.6,466,42.59,457,46.77c-11.81,5.51-19.09-11.73-7.9-16.95,4.26-2,6.55-.83,6.55-.83a11.51,11.51,0,0,1,6.79-11c11.43-5.33,16.32,6.4,16.32,6.4A8.65,8.65,0,0,1,483,20.49C489.84,17.3,497.09,28,487.42,32.5Z" transform="translate(-0.93)"/></g><g id="rain-copy-4"><path id="Path-Copy-3-3" data-name="Path-Copy-3" class="cls-1" d="M341.3,33.12c13.54,0,33.06.13,46.89.13,18.2,0,17.23-26.11,0-26.11-6.57,0-8.78,2.82-8.78,2.82A16.06,16.06,0,0,0,364.3,0c-17.6,0-16.88,17.73-16.88,17.73a12.08,12.08,0,0,0-7.64-2.41C329.26,15.32,326.4,33.12,341.3,33.12Z" transform="translate(-0.93)"/><g id="snowflakes"><path id="Fill-1" class="cls-2" d="M356.07,42.93,359.38,41a1.5,1.5,0,1,0-1.5-2.6l-3.32,1.91V36.5a1.5,1.5,0,0,0-3,0v3.83l-3.31-1.91a1.5,1.5,0,1,0-1.5,2.6l3.31,1.91-3.31,1.91a1.5,1.5,0,0,0,.75,2.8,1.48,1.48,0,0,0,.75-.2l3.31-1.91v3.83a1.5,1.5,0,0,0,3,0V45.52l3.32,1.91a1.48,1.48,0,0,0,.75.2,1.5,1.5,0,0,0,.75-2.8Z" transform="translate(-0.93)"/><path id="Fill-1-2" data-name="Fill-1" class="cls-2" d="M366.07,67.92,369.38,66a1.5,1.5,0,1,0-1.5-2.59l-3.31,1.91V61.5a1.5,1.5,0,0,0-3,0v3.83l-3.31-1.91a1.5,1.5,0,1,0-1.5,2.59l3.31,1.91-3.31,1.92a1.5,1.5,0,0,0,.75,2.8,1.48,1.48,0,0,0,.75-.2l3.31-1.92v3.83a1.5,1.5,0,0,0,3,0V70.52l3.31,1.92a1.48,1.48,0,0,0,.75.2,1.5,1.5,0,0,0,.75-2.8Z" transform="translate(-0.93)"/><path id="Fill-1-3" data-name="Fill-1" class="cls-2" d="M386.07,47.93,389.38,46a1.5,1.5,0,1,0-1.5-2.6l-3.32,1.91V41.5a1.5,1.5,0,0,0-3,0v3.83l-3.31-1.91a1.5,1.5,0,1,0-1.5,2.6l3.31,1.91-3.31,1.91a1.5,1.5,0,0,0,.75,2.8,1.48,1.48,0,0,0,.75-.2l3.31-1.91v3.83a1.5,1.5,0,0,0,3,0V50.52l3.32,1.91a1.48,1.48,0,0,0,.75.2,1.5,1.5,0,0,0,.75-2.8Z" transform="translate(-0.93)"/></g></g><g id="WINDY" class="cls-5"><g id="wind"><path id="Path-2" class="cls-6" d="M556,48h45.27c16.08,0,16.61,19,3.59,19-10.4,0-8-9.5-4.48-9.5" transform="translate(-0.93)"/><path id="Path-2-Copy" class="cls-6" d="M556,28.81h23.47c11,0,7.46-5.81,7.46-5.81" transform="translate(-0.93)"/><path id="Path-2-Copy-2" data-name="Path-2-Copy" class="cls-6" d="M551,38h60.09c20.07,0,17.67-25,0-25-10.54,0-8.78,12.5,0,12.5" transform="translate(-0.93)"/></g></g></g></g></g></g></svg>