<svg preserveAspectRatio="none" width="100%" height="100%" overflow="visible" style="display: block;" viewBox="0 0 56.64 72" fill="none" xmlns="http://www.w3.org/2000/svg">
<path id="?" d="M20.544 47.232C37.152 28.128 40.128 24.576 40.128 19.296C40.128 14.496 36.096 11.328 28.416 11.328C22.272 11.328 18.528 13.248 16.896 16.8C16.224 18.24 15.936 19.488 15.936 21.312H0C0 17.664 0.288 14.784 1.536 12.096C5.088 4.416 14.016 0 28.416 0C46.368 0 56.64 6.816 56.64 18.72C56.64 25.536 53.568 29.568 38.304 47.232H20.544ZM28.128 72C22.656 72 19.008 68.352 19.008 62.784C19.008 57.216 22.656 53.664 28.128 53.664C33.6 53.664 37.44 57.216 37.44 62.784C37.44 68.352 33.6 72 28.128 72Z" fill="var(--fill-0, white)"/>
</svg>
